<svg width="70" height="70" viewBox="0 0 70 70" fill="none" xmlns="http://www.w3.org/2000/svg">
<path d="M32.7472 9V24.3409C32.7472 28.697 31.8949 33.1477 30.1903 37.6932C28.5331 42.1913 26.3078 46.4527 23.5142 50.4773C20.7206 54.4545 17.6667 57.84 14.3523 60.6335L1 52.75C3.36742 49.0095 5.45076 44.8665 7.25 40.321C9.09659 35.7756 10.0199 30.4962 10.0199 24.483V9H32.7472ZM68.4716 9V24.3409C68.4716 28.697 67.6193 33.1477 65.9148 37.6932C64.2576 42.1913 62.0322 46.4527 59.2386 50.4773C56.4451 54.4545 53.3674 57.84 50.0057 60.6335L36.6534 52.75C39.0682 49.0095 41.1752 44.8665 42.9744 40.321C44.821 35.7756 45.7443 30.4962 45.7443 24.483V9H68.4716Z" fill="white"/>
</svg>
