<svg width="24" height="24" viewBox="0 0 24 24" fill="none" xmlns="http://www.w3.org/2000/svg">
<path fill-rule="evenodd" clip-rule="evenodd" d="M14.298 20.7041C15.9234 20.2749 17.396 19.399 18.5491 18.1757C19.7022 16.9524 20.4896 15.4306 20.8222 13.7827C21.1547 12.1348 21.0191 10.4267 20.4306 8.85201C19.8421 7.27727 18.8244 5.89883 17.4926 4.87287C16.1609 3.8469 14.5685 3.21444 12.8957 3.04713C11.223 2.87982 9.53679 3.18436 8.02824 3.92624C6.5197 4.66811 5.2491 5.81768 4.3604 7.24467C3.4717 8.67166 3.00043 10.319 3 12.0001C3.0001 14.0344 3.68914 16.0087 4.95484 17.6012C6.22054 19.1938 7.98828 20.3108 9.97 20.7701C10.0463 20.6884 10.0876 20.58 10.085 20.4681L10.081 19.9961L10.073 19.0441C7.744 19.5501 7.253 17.9211 7.253 17.9211C6.873 16.9531 6.323 16.6951 6.323 16.6951C5.563 16.1751 6.381 16.1851 6.381 16.1851C7.221 16.2451 7.663 17.0491 7.663 17.0491C8.41 18.3291 9.623 17.9601 10.1 17.7451C10.176 17.2041 10.393 16.8351 10.632 16.6251C8.772 16.4141 6.818 15.6951 6.818 12.4851C6.818 11.5701 7.144 10.8221 7.68 10.2361C7.594 10.0241 7.306 9.17312 7.762 8.01912C7.762 8.01912 8.465 7.79412 10.064 8.87912C10.7471 8.69285 11.4519 8.59769 12.16 8.59612C12.868 8.5974 13.5728 8.69222 14.256 8.87812C15.854 7.79412 16.556 8.01912 16.556 8.01912C17.013 9.17312 16.726 10.0241 16.639 10.2361C17.176 10.8221 17.5 11.5701 17.5 12.4851C17.5 15.7031 15.543 16.4121 13.678 16.6191C13.978 16.8781 14.246 17.3891 14.246 18.1701C14.246 18.9201 14.241 19.5711 14.238 20.0031L14.235 20.4691C14.235 20.5491 14.255 20.6321 14.298 20.7041Z" fill="#98B2BF"/>
</svg>
