<svg width="38" height="31" viewBox="0 0 38 31" fill="none" xmlns="http://www.w3.org/2000/svg">
<path fill-rule="evenodd" clip-rule="evenodd" d="M23.2228 10.1628L8.46197 20.0897L8.46196 20.0897C5.71495 21.9371 4.34144 22.8608 3.20171 22.796C2.20887 22.7396 1.29073 22.2506 0.689823 21.4582C0 20.5486 0 18.8934 0 15.583V5.65609C0 3.75502 0 2.80449 0.369972 2.07837C0.695408 1.43967 1.21469 0.920385 1.8534 0.594948C2.57951 0.224976 3.53004 0.224976 5.43111 0.224976H20.192C25.5542 0.224976 28.2353 0.224976 29.2204 1.17041C30.0715 1.9872 30.4375 3.18724 30.1871 4.33994C29.8973 5.67419 27.6724 7.17041 23.2228 10.1628ZM14.7772 20.2871L29.538 10.3602L29.5381 10.3602C32.2851 8.51281 33.6586 7.58911 34.7983 7.65392C35.7911 7.71039 36.7093 8.19938 37.3102 8.99173C38 9.90131 38 11.5565 38 14.867V24.7939C38 26.6949 38 27.6455 37.6301 28.3716C37.3046 29.0103 36.7853 29.5296 36.1466 29.855C35.4205 30.225 34.47 30.225 32.5689 30.225H17.8081C12.4458 30.225 9.76468 30.225 8.7796 29.2795C7.92856 28.4628 7.56257 27.2627 7.81295 26.11C8.10277 24.7758 10.3276 23.2795 14.7772 20.2871L14.7772 20.2871Z" fill="url(#paint0_linear_29_146)"/>
<defs>
<linearGradient id="paint0_linear_29_146" x1="-5.26739e-08" y1="14.8761" x2="38" y2="14.8761" gradientUnits="userSpaceOnUse">
<stop stop-color="#2D83EC"/>
<stop offset="1" stop-color="#1AC9FF" stop-opacity="0.8"/>
</linearGradient>
</defs>
</svg>
