<?xml version="1.0" encoding="UTF-8"?>
<svg version="1.1" xmlns="http://www.w3.org/2000/svg" width="200" height="200">
<path d="M0 0 C66 0 132 0 200 0 C200 66 200 132 200 200 C134 200 68 200 0 200 C0 134 0 68 0 0 Z " fill="#1D7CE3" transform="translate(0,0)"/>
<path d="M0 0 C3.42408543 1.38455858 4.58744923 4.90891523 6.21044922 8.04272461 C7.00514797 9.51655638 7.80205532 10.98919922 8.60107422 12.46069336 C8.99746094 13.19594238 9.39384766 13.93119141 9.80224609 14.6887207 C11.42605814 17.63855465 13.18085488 20.49719611 14.96044922 23.35522461 C15.59853516 24.38905273 16.23662109 25.42288086 16.89404297 26.48803711 C18.41019955 28.91274121 19.94514552 31.31992917 21.49560547 33.72241211 C22.33842587 35.05811465 23.18088048 36.39404807 24.02294922 37.73022461 C24.42964844 38.34518799 24.83634766 38.96015137 25.25537109 39.59375 C27.91884885 43.86592634 28.06839678 45.98056294 26.96044922 50.79272461 C26.37169202 52.60692951 25.73002991 54.40462855 25.04272461 56.18383789 C24.45189842 57.72541061 24.45189842 57.72541061 23.84913635 59.29812622 C23.42309616 60.39204681 22.99705597 61.48596741 22.55810547 62.61303711 C22.12034286 63.74925507 21.68258026 64.88547302 21.23155212 66.05612183 C20.30702081 68.45258981 19.37975818 70.84800564 18.44995117 73.24243164 C17.0262379 76.9092545 15.61078664 80.57918142 14.19677734 84.24975586 C13.29686754 86.57936874 12.3964927 88.90880204 11.49560547 91.23803711 C10.85958153 92.88499069 10.85958153 92.88499069 10.21070862 94.56521606 C9.81367233 95.58662689 9.41663605 96.60803772 9.00756836 97.66040039 C8.65972794 98.55719513 8.31188751 99.45398987 7.95350647 100.37796021 C7.04913279 102.5770775 6.05585357 104.68341333 4.96044922 106.79272461 C3.97044922 106.46272461 2.98044922 106.13272461 1.96044922 105.79272461 C0.85495018 103.56058311 -0.0532872 101.43063629 -0.91455078 99.10522461 C-1.38634766 97.88448242 -1.85814453 96.66374023 -2.34423828 95.40600586 C-2.59826416 94.70185547 -2.85229004 93.99770508 -3.11401367 93.2722168 C-3.80874917 91.41103671 -4.55986119 89.57074348 -5.33813477 87.74291992 C-9.19541192 78.17802134 -9.65875829 70.09578438 -9.35205078 59.91772461 C-9.32688455 58.43989864 -9.30408635 56.96203038 -9.28369141 55.48413086 C-9.22947353 51.91942649 -9.14368514 48.35636254 -9.03955078 44.79272461 C-19.17283762 47.46183261 -19.17283762 47.46183261 -29.26611328 50.27709961 C-30.00732422 50.48979492 -30.74853516 50.70249023 -31.51220703 50.92163086 C-32.98733038 51.34730166 -34.46123693 51.77720539 -35.93408203 52.21069336 C-39.73880707 53.29487164 -43.03797926 54.0774214 -47.03955078 53.79272461 C-48.34852331 46.82395625 -49.22595425 39.65227195 -47.03955078 32.79272461 C-42.69433225 26.91457752 -36.02759977 23.31328574 -29.87597656 19.57202148 C-25.2730018 16.68456409 -20.99375134 13.38266216 -16.66455078 10.10522461 C-14.44418435 8.45715791 -12.21770927 6.81922274 -9.97802734 5.19750977 C-8.74596389 4.30465169 -7.52274885 3.39935333 -6.31201172 2.4777832 C-2.56750328 -0.26093013 -2.56750328 -0.26093013 0 0 Z " fill="#FAFDFE" transform="translate(128.03955078125,45.207275390625)"/>
<path d="M0 0 C6.27840398 0.89830699 12.46941413 2.90014222 18.5625 4.625 C22.7390625 5.800625 22.7390625 5.800625 27 7 C27 16.9 27 26.8 27 37 C36.14077192 34.42005857 36.14077192 34.42005857 45.27709961 31.82446289 C51.87906518 29.9820646 58.15600708 28.47329479 65 28 C65.86579446 34.59811491 66.66018451 41.48007671 65 48 C61.54327571 51.9781005 57.77319075 53.82350013 53.04052734 55.99609375 C49.56078858 57.7080686 46.43784887 59.92924401 43.25 62.125 C42.00054488 62.95915008 40.75055702 63.7925028 39.5 64.625 C35.58277258 67.26208774 31.75236636 70.01611055 27.953125 72.8203125 C26 74 26 74 23 74 C21.27415111 72.39469592 19.61811292 70.71384543 18 69 C15.92176696 67.01366393 13.80320588 65.07131214 11.6875 63.125 C11.11789551 62.5997876 10.54829102 62.0745752 9.96142578 61.53344727 C6.22161994 58.09513611 2.44160428 54.71080892 -1.4140625 51.40234375 C-1.93742187 50.93957031 -2.46078125 50.47679687 -3 50 C-3.52070068 49.55914062 -4.04140137 49.11828125 -4.57788086 48.6640625 C-7.38040017 45.38475407 -6.31961139 41.08095838 -6 37 C-5.43276642 31.62300615 -4.68818276 26.27090295 -3.91870117 20.91967773 C-3.55899462 18.41307284 -3.21139529 15.90499224 -2.86523438 13.39648438 C-2.64132763 11.80458851 -2.41674357 10.21278774 -2.19140625 8.62109375 C-2.08719864 7.87016953 -1.98299103 7.1192453 -1.87562561 6.3455658 C-1.11569064 1.11569064 -1.11569064 1.11569064 0 0 Z " fill="#F7FBFE" transform="translate(47,71)"/>
<path d="M0 0 C0.556875 0.268125 1.11375 0.53625 1.6875 0.8125 C1.52902588 1.53268311 1.37055176 2.25286621 1.20727539 2.99487305 C0.71464994 5.66532412 0.48747351 8.18454546 0.37109375 10.89453125 C0.32919922 11.82587891 0.28730469 12.75722656 0.24414062 13.71679688 C0.20482422 14.67650391 0.16550781 15.63621094 0.125 16.625 C0.08181641 17.60404297 0.03863281 18.58308594 -0.00585938 19.59179688 C-0.1115226 21.99857027 -0.21362327 24.40543983 -0.3125 26.8125 C4.06339407 25.69095862 8.43804985 24.56465893 12.8125 23.4375 C14.05 23.12039062 15.2875 22.80328125 16.5625 22.4765625 C18.36074219 22.0125 18.36074219 22.0125 20.1953125 21.5390625 C21.29504395 21.25627441 22.39477539 20.97348633 23.52783203 20.68212891 C26.70127661 19.85135698 26.70127661 19.85135698 29.78076172 18.70458984 C32.60551223 17.83766238 34.7574801 17.64014589 37.6875 17.8125 C37.6654248 18.64571777 37.64334961 19.47893555 37.62060547 20.33740234 C37.25525646 40.0743679 39.10059033 55.27558036 47.78540039 73.3659668 C48.76126673 76.01255857 48.85978616 78.01496054 48.6875 80.8125 C46.7075 80.3175 46.7075 80.3175 44.6875 79.8125 C44.6875 81.1325 44.6875 82.4525 44.6875 83.8125 C45.6775 84.3075 45.6775 84.3075 46.6875 84.8125 C46.0275 85.4725 45.3675 86.1325 44.6875 86.8125 C44.6875 86.1525 44.6875 85.4925 44.6875 84.8125 C44.0275 84.8125 43.3675 84.8125 42.6875 84.8125 C41.57945025 81.68886366 40.47680462 78.5633441 39.375 75.4375 C39.06626953 74.56738281 38.75753906 73.69726562 38.43945312 72.80078125 C36.34639066 66.85207742 34.44563111 60.86855664 32.6875 54.8125 C22.33843415 61.45492737 12.00897238 68.12728484 1.6875 74.8125 C2.0175 76.1325 2.3475 77.4525 2.6875 78.8125 C1.6975 78.8125 0.7075 78.8125 -0.3125 78.8125 C-0.9725 76.5025 -1.6325 74.1925 -2.3125 71.8125 C-3.6325 71.8125 -4.9525 71.8125 -6.3125 71.8125 C-6.6425 72.8025 -6.9725 73.7925 -7.3125 74.8125 C-8.3025 74.4825 -9.2925 74.1525 -10.3125 73.8125 C-10.8075 74.8025 -10.8075 74.8025 -11.3125 75.8125 C-11.9725 74.1625 -12.6325 72.5125 -13.3125 70.8125 C-14.6325 70.8125 -15.9525 70.8125 -17.3125 70.8125 C-16.9825 69.4925 -16.6525 68.1725 -16.3125 66.8125 C-14.6050002 68.09312485 -12.93876404 69.43017557 -11.3125 70.8125 C-11.3125 71.4725 -11.3125 72.1325 -11.3125 72.8125 C-6.57427657 70.32893844 -2.03873836 67.70122835 2.3203125 64.59375 C7.72456241 60.77564995 13.1910247 57.05880791 18.6875 53.375 C20.09708984 52.42077148 20.09708984 52.42077148 21.53515625 51.44726562 C22.87900391 50.54717773 22.87900391 50.54717773 24.25 49.62890625 C25.05566406 49.08693604 25.86132812 48.54496582 26.69140625 47.98657227 C28.6875 46.8125 28.6875 46.8125 30.6875 46.8125 C30.6875 40.2125 30.6875 33.6125 30.6875 26.8125 C21.0828056 28.99171638 11.62203731 31.29096692 2.22290039 34.23706055 C-1.15933759 35.27715279 -3.73145117 35.8125 -7.3125 35.8125 C-7.43650035 31.48927539 -7.52702256 27.16700398 -7.5871582 22.8425293 C-7.61223644 21.37294475 -7.64630856 19.90348413 -7.68969727 18.43432617 C-7.75065499 16.31658319 -7.77877316 14.20049424 -7.80078125 12.08203125 C-7.82696533 10.80948486 -7.85314941 9.53693848 -7.88012695 8.22583008 C-7.16029405 3.8972349 -4.92160604 -0.39904914 0 0 Z " fill="#237CDC" transform="translate(81.3125,72.1875)"/>
<path d="M0 0 C-1.4034241 3.34058286 -2.93395297 4.99311974 -5.859375 7.1015625 C-6.63885498 7.6699585 -7.41833496 8.23835449 -8.22143555 8.82397461 C-9.05586182 9.41831299 -9.89028809 10.01265137 -10.75 10.625 C-12.48047656 11.86847872 -14.21094525 13.11196839 -15.94140625 14.35546875 C-16.79879395 14.96825684 -17.65618164 15.58104492 -18.53955078 16.21240234 C-20.759735 17.82543954 -22.93099412 19.48204744 -25.08984375 21.17578125 C-25.70311523 21.64612793 -26.31638672 22.11647461 -26.94824219 22.60107422 C-28.5824049 23.85674613 -30.20378612 25.12900255 -31.82421875 26.40234375 C-38.33295631 29.6767271 -45.85015365 26.3707208 -52.5 24.4375 C-53.32242188 24.20353516 -54.14484375 23.96957031 -54.9921875 23.72851562 C-56.99629058 23.15757928 -58.99836591 22.57953295 -61 22 C-61 19 -61 19 -59.56640625 17.4921875 C-58.90511719 16.95851563 -58.24382813 16.42484375 -57.5625 15.875 C-55.13381418 13.89403713 -53.02794385 12.03380929 -51.02734375 9.61328125 C-46.6975855 4.43258786 -43.10200932 2.21447912 -36.375 1.5 C-34.27610453 1.32593324 -32.18250394 1.19490514 -30.07861328 1.09863281 C-28.07972727 1.00378316 -26.08429809 0.84306937 -24.08984375 0.6796875 C-16.05349745 0.03146101 -8.05918982 -0.12231485 0 0 Z " fill="#F6FBFE" transform="translate(113,44)"/>
<path d="M0 0 C11 27.80898876 11 27.80898876 11 32 C2.08634817 31.36113758 -6.42222712 29.08995015 -15.0625 26.9375 C-16.61119988 26.55611948 -18.16002711 26.17525569 -19.70898438 25.79492188 C-23.47415171 24.86923561 -27.23752377 23.93656158 -31 23 C-31 21.68 -31 20.36 -31 19 C-29.62988281 17.66308594 -29.62988281 17.66308594 -27.703125 16.484375 C-26.64363647 15.819823 -26.64363647 15.819823 -25.56274414 15.1418457 C-24.79953857 14.68253662 -24.03633301 14.22322754 -23.25 13.75 C-21.69084182 12.78085537 -20.1322516 11.81079646 -18.57421875 10.83984375 C-17.79997559 10.36272949 -17.02573242 9.88561523 -16.22802734 9.39404297 C-12.14412898 6.83880961 -8.19403799 4.08916775 -4.22265625 1.36328125 C-2 0 -2 0 0 0 Z " fill="#F5FBFD" transform="translate(114,127)"/>
<path d="M0 0 C1.5 1.375 1.5 1.375 3 3 C3 3.66 3 4.32 3 5 C3.99 4.34 4.98 3.68 6 3 C9.6875 3.375 9.6875 3.375 13 4 C9.9202133 7.28015836 6.62274517 9.80103854 2.9375 12.375 C-3.92869614 17.20477015 -10.68742146 22.17127103 -17.42602539 27.17724609 C-21.55104866 30.23233739 -25.69711448 33.20036615 -30 36 C-30.495 34.02 -30.495 34.02 -31 32 C-33.92813253 32.41830465 -34.86899896 32.85153216 -36.875 35.125 C-37.57625 35.74375 -38.2775 36.3625 -39 37 C-43.87733168 36.52540934 -48.63420821 35.15055974 -53.375 33.9375 C-54.11105469 33.75123047 -54.84710938 33.56496094 -55.60546875 33.37304688 C-57.40419444 32.91752543 -59.20217529 32.4590645 -61 32 C-59.68 31.34 -58.36 30.68 -57 30 C-57 29.34 -57 28.68 -57 28 C-58.98 27.67 -60.96 27.34 -63 27 C-62.125 21.25 -62.125 21.25 -61 19 C-59.68 19.33 -58.36 19.66 -57 20 C-58.98 20.99 -58.98 20.99 -61 22 C-61 22.99 -61 23.98 -61 25 C-60.07058594 25.19335938 -59.14117187 25.38671875 -58.18359375 25.5859375 C-46.8711721 27.96874164 -46.8711721 27.96874164 -43.0625 29.25 C-39.26494093 30.18001447 -36.81779348 29.84478834 -33 29 C-30.01016177 27.1987932 -30.01016177 27.1987932 -27.1875 24.75 C-26.07284905 23.84452476 -24.95549605 22.942369 -23.8359375 22.04296875 C-23.23233398 21.55618652 -22.62873047 21.0694043 -22.00683594 20.56787109 C-17.44007063 17.00001625 -12.65824216 13.70999363 -7.91674805 10.37988281 C-7.177229 9.85362305 -6.43770996 9.32736328 -5.67578125 8.78515625 C-5.01489502 8.31988525 -4.35400879 7.85461426 -3.6730957 7.37524414 C-1.73599914 5.91875523 -1.73599914 5.91875523 0 3 C-1.30195312 3.08378906 -2.60390625 3.16757812 -3.9453125 3.25390625 C-5.67185396 3.3571234 -7.3984177 3.45996835 -9.125 3.5625 C-10.40890625 3.64661133 -10.40890625 3.64661133 -11.71875 3.73242188 C-16.32181859 3.99798352 -20.45819546 4.00515346 -25 3 C-25 2.67 -25 2.34 -25 2 C-16.75 2 -8.5 2 0 2 C0 1.34 0 0.68 0 0 Z " fill="#2E82DD" transform="translate(113,41)"/>
<path d="M0 0 C0.495 1.98 0.495 1.98 1 4 C0.34 4.33 -0.32 4.66 -1 5 C-1.2769873 5.61391602 -1.55397461 6.22783203 -1.83935547 6.86035156 C-3.32206229 9.59372191 -4.95242727 10.57748562 -7.5703125 12.234375 C-8.91416016 13.09482422 -8.91416016 13.09482422 -10.28515625 13.97265625 C-11.22230469 14.55917969 -12.15945312 15.14570313 -13.125 15.75 C-14.06988281 16.35199219 -15.01476562 16.95398438 -15.98828125 17.57421875 C-18.32020291 19.0581689 -20.65741993 20.53295527 -23 22 C-22.67 23.32 -22.34 24.64 -22 26 C-22.99 26 -23.98 26 -25 26 C-25.66 23.69 -26.32 21.38 -27 19 C-28.32 19 -29.64 19 -31 19 C-31.33 19.99 -31.66 20.98 -32 22 C-32.99 21.67 -33.98 21.34 -35 21 C-35.33 21.66 -35.66 22.32 -36 23 C-36.66 21.35 -37.32 19.7 -38 18 C-39.32 18 -40.64 18 -42 18 C-41.67 16.68 -41.34 15.36 -41 14 C-39.2925002 15.28062485 -37.62626404 16.61767557 -36 18 C-36 18.66 -36 19.32 -36 20 C-29.28472505 16.48015782 -23.16733258 12.39555571 -17 8 C-15.40185185 6.88714008 -13.797942 5.78249373 -12.1875 4.6875 C-11.50042969 4.21699219 -10.81335938 3.74648437 -10.10546875 3.26171875 C-6.71864462 1.23213769 -3.97374208 0 0 0 Z " fill="#2175D0" transform="translate(106,125)"/>
<path d="M0 0 C1.5 1.375 1.5 1.375 3 3 C3 3.66 3 4.32 3 5 C3.99 4.34 4.98 3.68 6 3 C9.6875 3.375 9.6875 3.375 13 4 C9.70285113 7.54320476 6.06700508 10.23808561 2.125 13 C1.52558594 13.42539062 0.92617187 13.85078125 0.30859375 14.2890625 C-3.41887796 16.92497525 -7.19078747 19.48382292 -11 22 C-11.99 20.68 -12.98 19.36 -14 18 C-13.34 17.34 -12.68 16.68 -12 16 C-12.66 15.67 -13.32 15.34 -14 15 C-13.07316406 14.30132812 -12.14632812 13.60265625 -11.19140625 12.8828125 C-9.98161523 11.96374645 -8.77198829 11.0444644 -7.5625 10.125 C-6.64500977 9.43470703 -6.64500977 9.43470703 -5.70898438 8.73046875 C-2.35742987 6.30765076 -2.35742987 6.30765076 0 3 C-1.30195312 3.08378906 -2.60390625 3.16757812 -3.9453125 3.25390625 C-5.67185396 3.3571234 -7.3984177 3.45996835 -9.125 3.5625 C-10.40890625 3.64661133 -10.40890625 3.64661133 -11.71875 3.73242188 C-16.32181859 3.99798352 -20.45819546 4.00515346 -25 3 C-25 2.67 -25 2.34 -25 2 C-16.75 2 -8.5 2 0 2 C0 1.34 0 0.68 0 0 Z " fill="#3589E4" transform="translate(113,41)"/>
<path d="M0 0 C0.33 0.66 0.66 1.32 1 2 C0.34 2 -0.32 2 -1 2 C-0.67 2.66 -0.34 3.32 0 4 C2.52733235 4.65555119 2.52733235 4.65555119 5 5 C1.47322243 7.35118505 -2.01108656 8.23266895 -6.0625 9.25 C-6.79533203 9.44851562 -7.52816406 9.64703125 -8.28320312 9.8515625 C-10.16730347 10.32907553 -12.08374245 10.6747158 -14 11 C-14.66 10.34 -15.32 9.68 -16 9 C-14.02 9 -12.04 9 -10 9 C-10 8.34 -10 7.68 -10 7 C-9.01 6.67 -8.02 6.34 -7 6 C-9.64 5.67 -12.28 5.34 -15 5 C-11.8377726 3.26830404 -8.73257278 2.2871024 -5.25 1.375 C-4.26515625 1.11460938 -3.2803125 0.85421875 -2.265625 0.5859375 C-1.14414063 0.29589844 -1.14414063 0.29589844 0 0 Z " fill="#2B7BD4" transform="translate(101,94)"/>
<path d="M0 0 C1.91385532 2.87078299 2.96432952 5.33411656 4.125 8.5625 C4.47820312 9.53316406 4.83140625 10.50382813 5.1953125 11.50390625 C6 14 6 14 6 16 C5.34 16 4.68 16 4 16 C3.67 15.34 3.34 14.68 3 14 C2.01 14 1.02 14 0 14 C0.99 15.485 0.99 15.485 2 17 C2.4140625 19.26171875 2.4140625 19.26171875 2.625 21.6875 C2.69976562 22.49574219 2.77453125 23.30398437 2.8515625 24.13671875 C2.92503906 25.05904297 2.92503906 25.05904297 3 26 C0.83921227 22.75881841 -0.34884727 19.71790415 -1.6875 16.0625 C-2.14511719 14.83660156 -2.60273437 13.61070312 -3.07421875 12.34765625 C-3.93811367 9.22378307 -4.21062031 7.92750001 -3 5 C-2.67 6.65 -2.34 8.3 -2 10 C-0.68 10 0.64 10 2 10 C2 8.68 2 7.36 2 6 C1.34 6 0.68 6 0 6 C0 4.02 0 2.04 0 0 Z " fill="#2276CD" transform="translate(119,122)"/>
<path d="M0 0 C0.66 0 1.32 0 2 0 C1.67 6.6 1.34 13.2 1 20 C2.98 20 4.96 20 7 20 C7 19.34 7 18.68 7 18 C8.32 18.33 9.64 18.66 11 19 C6.60378337 21.06880783 3.88981218 22.0844892 -1 22 C-1.02887814 18.52085059 -1.04675687 15.04173169 -1.0625 11.5625 C-1.07087891 10.56927734 -1.07925781 9.57605469 -1.08789062 8.55273438 C-1.09111328 7.60849609 -1.09433594 6.66425781 -1.09765625 5.69140625 C-1.10289307 4.81685791 -1.10812988 3.94230957 -1.11352539 3.04125977 C-1 1 -1 1 0 0 Z " fill="#D5F3FE" transform="translate(82,77)"/>
<path d="M0 0 C0 3 0 3 -1.96875 5.26171875 C-2.8040625 6.06222656 -3.639375 6.86273438 -4.5 7.6875 C-5.3353125 8.49574219 -6.170625 9.30398437 -7.03125 10.13671875 C-8.00578125 11.05904297 -8.00578125 11.05904297 -9 12 C-5.98552165 14.57075841 -3.64020229 15.52207066 0.25 16.1875 C1.58804688 16.42533203 1.58804688 16.42533203 2.953125 16.66796875 C3.62859375 16.77753906 4.3040625 16.88710937 5 17 C5 17.66 5 18.32 5 19 C-1.30367803 18.41632611 -6.98660063 16.95928381 -13 15 C-13 12 -13 12 -11.42578125 10.3515625 C-10.72839844 9.78179687 -10.03101563 9.21203125 -9.3125 8.625 C-6.03135631 5.88002899 -2.97663714 3.06965705 0 0 Z " fill="#DCF5FE" transform="translate(65,51)"/>
<path d="M0 0 C1.32 0.33 2.64 0.66 4 1 C2.02 1.99 2.02 1.99 0 3 C0 3.99 0 4.98 0 6 C3.3 6.66 6.6 7.32 10 8 C10 8.66 10 9.32 10 10 C9.34 10 8.68 10 8 10 C8 10.99 8 11.98 8 13 C5.39417629 13.93065133 4.35801776 14.14917407 1.75 13.0625 C1.1725 12.711875 0.595 12.36125 0 12 C1.32 11.67 2.64 11.34 4 11 C4 10.34 4 9.68 4 9 C1.03 8.505 1.03 8.505 -2 8 C-1.125 2.25 -1.125 2.25 0 0 Z " fill="#3684DA" transform="translate(52,60)"/>
<path d="M0 0 C0.33 0 0.66 0 1 0 C1 8.58 1 17.16 1 26 C4.63 26.33 8.26 26.66 12 27 C8 29 8 29 0 30 C0 20.1 0 10.2 0 0 Z " fill="#377ACF" transform="translate(74,78)"/>
<path d="M0 0 C0.66 0.33 1.32 0.66 2 1 C1.67 2.98 1.34 4.96 1 7 C1.99 7.33 2.98 7.66 4 8 C1.69 9.32 -0.62 10.64 -3 12 C-3.33 10.68 -3.66 9.36 -4 8 C-3.34 8 -2.68 8 -2 8 C-2 7.01 -2 6.02 -2 5 C-2.598125 5.350625 -3.19625 5.70125 -3.8125 6.0625 C-6 7 -6 7 -9 6 C-6.03 4.02 -3.06 2.04 0 0 Z " fill="#307DD4" transform="translate(108,120)"/>
<path d="M0 0 C7.03787373 1.52487264 14.0203196 3.22850751 21 5 C21 5.33 21 5.66 21 6 C6.21867882 5.40546697 6.21867882 5.40546697 0 2 C-0.33 2.99 -0.66 3.98 -1 5 C-0.67 3.35 -0.34 1.7 0 0 Z " fill="#CFEBFC" transform="translate(47,71)"/>
<path d="M0 0 C0.33 0.99 0.66 1.98 1 3 C1.66 3 2.32 3 3 3 C2.8864371 4.64666203 2.75882619 6.29236082 2.625 7.9375 C2.55539063 8.85402344 2.48578125 9.77054688 2.4140625 10.71484375 C2.27742188 11.46894531 2.14078125 12.22304687 2 13 C1.01 13.495 1.01 13.495 0 14 C-0.13277344 13.31292969 -0.26554687 12.62585938 -0.40234375 11.91796875 C-0.57894531 11.01691406 -0.75554687 10.11585938 -0.9375 9.1875 C-1.11152344 8.29417969 -1.28554687 7.40085938 -1.46484375 6.48046875 C-1.97741153 3.88602829 -1.97741153 3.88602829 -3 1 C-2.01 0.67 -1.02 0.34 0 0 Z " fill="#1975DC" transform="translate(122,135)"/>
<path d="M0 0 C0.33 1.32 0.66 2.64 1 4 C0.01 4.495 0.01 4.495 -1 5 C-1 5.66 -1 6.32 -1 7 C-3.31 7 -5.62 7 -8 7 C-7.62005832 4.24542282 -7.1926367 3.17979426 -5.125 1.25 C-3 0 -3 0 0 0 Z " fill="#1779D8" transform="translate(106,125)"/>
<path d="M0 0 C0.66 0.33 1.32 0.66 2 1 C2 2.32 2 3.64 2 5 C1.34 5 0.68 5 0 5 C0 4.34 0 3.68 0 3 C-1.30195312 3.08378906 -2.60390625 3.16757812 -3.9453125 3.25390625 C-5.67185396 3.3571234 -7.3984177 3.45996835 -9.125 3.5625 C-10.40890625 3.64661133 -10.40890625 3.64661133 -11.71875 3.73242188 C-16.32181859 3.99798352 -20.45819546 4.00515346 -25 3 C-25 2.67 -25 2.34 -25 2 C-16.75 2 -8.5 2 0 2 C0 1.34 0 0.68 0 0 Z " fill="#3D8BDF" transform="translate(113,41)"/>
<path d="M0 0 C2.64 0 5.28 0 8 0 C7.67 0.99 7.34 1.98 7 3 C6.01 3 5.02 3 4 3 C4 4.32 4 5.64 4 7 C2.68 6.67 1.36 6.34 0 6 C0 5.34 0 4.68 0 4 C-0.66 4 -1.32 4 -2 4 C-1.34 2.68 -0.68 1.36 0 0 Z " fill="#2B80E9" transform="translate(88,64)"/>
<path d="M0 0 C0.99 0 1.98 0 3 0 C6.04086301 6.46183389 5.09102493 11.4655471 3 18 C2.34 18 1.68 18 1 18 C1 18.99 1 19.98 1 21 C0.34 20.67 -0.32 20.34 -1 20 C-0.69964844 19.33613281 -0.39929688 18.67226562 -0.08984375 17.98828125 C0.29042969 17.10527344 0.67070312 16.22226563 1.0625 15.3125 C1.44535156 14.44238281 1.82820312 13.57226562 2.22265625 12.67578125 C3.58226556 7.99571906 1.85929591 4.33835712 0 0 Z " fill="#3884CE" transform="translate(152,84)"/>
<path d="M0 0 C0.33 0.66 0.66 1.32 1 2 C-0.65 2.33 -2.3 2.66 -4 3 C-4.33 3.99 -4.66 4.98 -5 6 C-8.3 5.67 -11.6 5.34 -15 5 C-11.6325319 3.31626595 -8.84984234 2.31781585 -5.25 1.375 C-4.26515625 1.11460938 -3.2803125 0.85421875 -2.265625 0.5859375 C-1.14414063 0.29589844 -1.14414063 0.29589844 0 0 Z " fill="#3682D1" transform="translate(101,94)"/>
<path d="M0 0 C0.33 0 0.66 0 1 0 C1.33 9.57 1.66 19.14 2 29 C1.01 29 0.02 29 -1 29 C-0.67 19.43 -0.34 9.86 0 0 Z " fill="#2176D2" transform="translate(117,94)"/>
<path d="M0 0 C3.12259437 3.12259437 3.14293342 6.71466712 4 11 C1.03 10.67 -1.94 10.34 -5 10 C-5 9.67 -5 9.34 -5 9 C-3.35 8.67 -1.7 8.34 0 8 C0 5.36 0 2.72 0 0 Z " fill="#CDEEFC" transform="translate(121,148)"/>
<path d="M0 0 C0.66 0.33 1.32 0.66 2 1 C-0.11393565 4.17090348 -0.79971661 4.3998583 -4 6 C-4.66 6.721875 -5.32 7.44375 -6 8.1875 C-6.99 9.0846875 -6.99 9.0846875 -8 10 C-9.32 9.67 -10.64 9.34 -12 9 C-8.04 6.03 -4.08 3.06 0 0 Z " fill="#D7F3FD" transform="translate(105,60)"/>
<path d="M0 0 C2.49609375 0.20703125 2.49609375 0.20703125 5.4375 0.8125 C6.40558594 1.00457031 7.37367187 1.19664063 8.37109375 1.39453125 C11 2 11 2 14 3 C14 3.66 14 4.32 14 5 C8.49191603 4.40984815 3.35121931 3.43336231 -2 2 C-1.34 1.34 -0.68 0.68 0 0 Z " fill="#D2EEFD" transform="translate(56,65)"/>
<path d="M0 0 C0 0.99 0 1.98 0 3 C-3.61964725 6.6106655 -7.77559896 9.67347493 -13 10 C-10.53511103 7.33857503 -7.79550348 5.36573616 -4.8125 3.3125 C-3.91144531 2.68988281 -3.01039062 2.06726563 -2.08203125 1.42578125 C-1.39496094 0.95527344 -0.70789063 0.48476562 0 0 Z " fill="#D4EFFB" transform="translate(107,130)"/>
<path d="M0 0 C2 3 2 3 2 7 C0.35 7 -1.3 7 -3 7 C-3.33 7.66 -3.66 8.32 -4 9 C-4.66 8.34 -5.32 7.68 -6 7 C-5.34 7 -4.68 7 -4 7 C-3.34 5.35 -2.68 3.7 -2 2 C-1.34 2 -0.68 2 0 2 C0 1.34 0 0.68 0 0 Z " fill="#2586F0" transform="translate(115,44)"/>
<path d="M0 0 C1.79232337 0.30871122 3.58384321 0.62209064 5.375 0.9375 C6.87160156 1.19853516 6.87160156 1.19853516 8.3984375 1.46484375 C11 2 11 2 13 3 C13 3.66 13 4.32 13 5 C11.58318366 4.68817931 10.16655349 4.37551263 8.75 4.0625 C7.96109375 3.88847656 7.1721875 3.71445313 6.359375 3.53515625 C4.23121297 3.052444 2.11467158 2.53836822 0 2 C0 1.34 0 0.68 0 0 Z " fill="#2B77C6" transform="translate(89,151)"/>
<path d="M0 0 C1.98 0.66 3.96 1.32 6 2 C6.33 4.97 6.66 7.94 7 11 C4.04250209 7.53258866 1.92151848 4.13126473 0 0 Z " fill="#408BE3" transform="translate(134,54)"/>
<path d="M0 0 C0.99 0.33 1.98 0.66 3 1 C0.36 3.64 -2.28 6.28 -5 9 C-5.33 7.68 -5.66 6.36 -6 5 C-5.01 4.67 -4.02 4.34 -3 4 C-3 3.34 -3 2.68 -3 2 C-2.01 2 -1.02 2 0 2 C0 1.34 0 0.68 0 0 Z " fill="#3186D9" transform="translate(64,49)"/>
<path d="M0 0 C2.475 0.99 2.475 0.99 5 2 C6.3125 5.625 6.3125 5.625 7 9 C6.01 9.495 6.01 9.495 5 10 C3.35 6.7 1.7 3.4 0 0 Z " fill="#3A89E1" transform="translate(142,67)"/>
<path d="M0 0 C1.79068573 2.6860286 2.66055791 4.6626589 3.625 7.6875 C3.88539062 8.49574219 4.14578125 9.30398437 4.4140625 10.13671875 C4.60742188 10.75160156 4.80078125 11.36648437 5 12 C3.35 11.67 1.7 11.34 0 11 C0.66 10.67 1.32 10.34 2 10 C2 8.68 2 7.36 2 6 C1.34 6 0.68 6 0 6 C0 4.02 0 2.04 0 0 Z " fill="#387FCF" transform="translate(119,122)"/>
<path d="M0 0 C0.33 0 0.66 0 1 0 C1.09688221 5.44693314 1.12862175 10.63904667 0 16 C-0.33 16 -0.66 16 -1 16 C-1.33 13.36 -1.66 10.72 -2 8 C-1.34 8 -0.68 8 0 8 C-0.2784375 6.2984375 -0.2784375 6.2984375 -0.5625 4.5625 C-0.7790625 2.7990625 -0.7790625 2.7990625 -1 1 C-0.67 0.67 -0.34 0.34 0 0 Z " fill="#2274CA" transform="translate(42,90)"/>
<path d="M0 0 C2.25 0.25 2.25 0.25 4 1 C4.33 2.32 4.66 3.64 5 5 C4.01 5 3.02 5 2 5 C2 4.34 2 3.68 2 3 C0.02 3.33 -1.96 3.66 -4 4 C-2.25 1.9375 -2.25 1.9375 0 0 Z " fill="#DDF5FD" transform="translate(126,45)"/>
<path d="M0 0 C0.66 0.99 1.32 1.98 2 3 C-0.35968744 5.09749995 -1.54616994 5.96905704 -4.75 6.1875 C-5.86375 6.0946875 -5.86375 6.0946875 -7 6 C-4.74259377 3.66475218 -2.7194239 1.81294927 0 0 Z " fill="#D7F1FB" transform="translate(92,140)"/>
<path d="M0 0 C0.66 0 1.32 0 2 0 C2.53394179 1.4117783 3.05165104 2.82970244 3.5625 4.25 C3.85253906 5.03890625 4.14257812 5.8278125 4.44140625 6.640625 C5.04522837 9.19103452 4.8473932 10.55322229 4 13 C3.32942113 11.2097939 2.6636531 9.41778511 2 7.625 C1.62875 6.62726563 1.2575 5.62953125 0.875 4.6015625 C0 2 0 2 0 0 Z " fill="#377CCD" transform="translate(117,135)"/>
<path d="M0 0 C3.63 0.33 7.26 0.66 11 1 C6.78370866 3.10814567 4.60209225 3.17700355 0 3 C0 2.01 0 1.02 0 0 Z " fill="#277BD2" transform="translate(75,104)"/>
<path d="M0 0 C0 1.65 0 3.3 0 5 C-0.99 5.495 -0.99 5.495 -2 6 C-2.33 5.34 -2.66 4.68 -3 4 C-3.99 3.67 -4.98 3.34 -6 3 C-6 2.34 -6 1.68 -6 1 C-3 0 -3 0 0 0 Z " fill="#358EEC" transform="translate(132,42)"/>
<path d="M0 0 C-3.20380017 2.13586678 -4.01939967 2.23132175 -7.6875 2.125 C-8.89986328 2.09792969 -8.89986328 2.09792969 -10.13671875 2.0703125 C-11.05904297 2.03550781 -11.05904297 2.03550781 -12 2 C-7.66032699 -0.21504143 -4.80574417 -1.54470348 0 0 Z " fill="#CBE8FA" transform="translate(86,107)"/>
<path d="M0 0 C2.64 0 5.28 0 8 0 C7.1875 1.9375 7.1875 1.9375 6 4 C5.01 4.33 4.02 4.66 3 5 C3.33 4.01 3.66 3.02 4 2 C2.68 1.34 1.36 0.68 0 0 Z " fill="#DCF3FF" transform="translate(105,44)"/>
<path d="M0 0 C2.88575819 0.39803561 3.82189513 0.79009069 5.75 3.0625 C6.1625 3.701875 6.575 4.34125 7 5 C6.01 5.33 5.02 5.66 4 6 C2.62437146 4.71034824 1.29233607 3.37310707 0 2 C0 1.34 0 0.68 0 0 Z " fill="#2B7ACF" transform="translate(57,134)"/>
<path d="M0 0 C0.33 0 0.66 0 1 0 C1 2.31 1 4.62 1 7 C-0.98 7.99 -0.98 7.99 -3 9 C-2.01 6.03 -1.02 3.06 0 0 Z " fill="#3582D2" transform="translate(146,117)"/>
<path d="M0 0 C0.99 0 1.98 0 3 0 C4.79682816 3.80504787 5.07349791 4.70600835 4 9 C2.68 6.03 1.36 3.06 0 0 Z " fill="#418BDC" transform="translate(152,84)"/>
</svg>
