<?xml version="1.0" encoding="UTF-8"?>
<svg version="1.1" xmlns="http://www.w3.org/2000/svg" width="560" height="560">
<path d="M0 0 C184.8 0 369.6 0 560 0 C560 184.8 560 369.6 560 560 C375.2 560 190.4 560 0 560 C0 375.2 0 190.4 0 0 Z " fill="#0098E8" transform="translate(0,0)"/>
<path d="M0 0 C0.82732974 -0.00382555 1.65465948 -0.00765109 2.50705981 -0.01159257 C5.25963498 -0.0218526 8.01199882 -0.01794377 10.7645874 -0.01396179 C12.74627372 -0.01831221 14.72795835 -0.02349646 16.7096405 -0.02944946 C22.07965497 -0.04281702 27.44959895 -0.04342049 32.81962681 -0.04088616 C37.30989099 -0.03981466 41.80014103 -0.04470455 46.29040217 -0.04949158 C56.8893927 -0.0605796 67.48834779 -0.06102852 78.08734131 -0.05497742 C89.00272325 -0.04894122 99.91797618 -0.06124133 110.83333611 -0.08254749 C120.22045213 -0.1001934 129.6075272 -0.10616002 138.99465919 -0.10290974 C144.59415429 -0.10110108 150.1935574 -0.10369112 155.79303741 -0.11762428 C161.06262937 -0.13024622 166.33202112 -0.12821729 171.60161018 -0.11521339 C173.52842083 -0.11285734 175.45524576 -0.11554723 177.38204002 -0.12383652 C195.37757759 -0.19563243 209.46063204 1.93582623 223.04876709 14.67866516 C231.75330135 24.18890838 236.23434522 36.13949081 235.73919678 49.00239563 C234.68350419 59.51677867 229.97805498 68.64854335 224.72454834 77.63569641 C223.78264648 79.28154724 223.78264648 79.28154724 222.82171631 80.96064758 C219.29426202 87.10124945 215.70187553 93.20209006 212.01556396 99.24873352 C208.12425781 105.65799522 204.43378482 112.1826397 200.72454834 118.69819641 C195.58422827 127.72632543 190.41046746 136.73223877 185.16204834 145.69819641 C180.87089657 153.02944055 176.61461387 160.37830125 172.41204834 167.76069641 C168.20948142 175.14309401 163.95300433 182.49183627 159.66204834 189.82319641 C154.54779522 198.56474543 149.49174351 207.33817141 144.47454834 216.13569641 C137.40692292 228.52431826 130.33178248 240.90813283 123.16400146 253.23921204 C122.00674095 255.23506713 120.85429821 257.23372442 119.70697021 259.23530579 C118.12091005 262.00108013 116.51864888 264.75681699 114.91204834 267.51069641 C114.22803955 268.71629211 114.22803955 268.71629211 113.5302124 269.94624329 C110.2281552 275.54695681 106.32943877 280.3020012 100.41204834 283.26069641 C88.4989745 284.19235988 88.4989745 284.19235988 82.91204834 281.69819641 C76.47180913 275.41896318 72.18965882 268.72705118 67.91204834 260.82319641 C66.67170735 258.56957498 65.42947184 256.31699536 64.18548584 254.06538391 C63.55739014 252.92681946 62.92929443 251.788255 62.28216553 250.6151886 C59.43974503 245.51664322 56.49455161 240.48059947 53.53704834 235.44819641 C48.43545303 226.7526221 43.40196066 218.02062848 38.41204834 209.26069641 C33.45855443 200.56651574 28.46835369 191.89566537 23.41204834 183.26069641 C18.00848374 174.03269112 12.68552473 164.76074971 7.39154053 155.46968079 C2.7770203 147.37325508 -1.87890421 139.30263132 -6.58795166 131.26069641 C-12.33001079 121.45462283 -17.98263948 111.5995586 -23.60064697 101.72212219 C-26.88280517 95.95731611 -30.19335167 90.21178391 -33.57232666 84.50288391 C-34.20654541 83.42909485 -34.84076416 82.35530579 -35.49420166 81.24897766 C-36.68079535 79.24534382 -37.87306106 77.24505261 -39.07232666 75.24897766 C-46.22674899 63.15869186 -50.80321931 51.24361978 -47.93951416 37.04585266 C-44.60895988 25.07578364 -38.25641261 13.73549045 -27.31451416 7.35054016 C-18.27402171 2.56289909 -10.18220979 -0.05074258 0 0 Z " fill="#FBFEFE" transform="translate(186.58795166015625,155.7393035888672)"/>
<path d="M0 0 C81 0 81 0 87 4 C89.74024992 8.11037488 89.78117717 11.1717492 89 16 C87.51787324 19.69025314 85.51201077 22.98964584 83.4375 26.375 C82.23671455 28.41314028 81.03756231 30.45224345 79.83984375 32.4921875 C79.20933105 33.55405273 78.57881836 34.61591797 77.92919922 35.70996094 C74.68152847 41.24850953 71.59856905 46.87713271 68.5 52.5 C63.8716198 60.8553353 59.21117118 69.19107531 54.5 77.5 C47.84596314 89.24175428 41.27705268 101.02987422 34.74755859 112.84130859 C33.65892904 114.80899359 32.5684378 116.77565119 31.47509766 118.74072266 C26.17857056 128.26067177 21.05256754 137.85455873 16.1015625 147.55859375 C15.67194214 148.39988831 15.24232178 149.24118286 14.79968262 150.10797119 C12.63073367 154.35875904 10.47020084 158.61355929 8.32128906 162.87451172 C7.52422315 164.44375328 6.7270285 166.01292945 5.9296875 167.58203125 C5.56251617 168.31634872 5.19534485 169.0506662 4.81704712 169.80723572 C2.22639629 174.88680185 2.22639629 174.88680185 0 176 C0 117.92 0 59.84 0 0 Z " fill="#0199E8" transform="translate(297,191)"/>
<path d="M0 0 C0 57.75 0 115.5 0 175 C-2.09612522 172.20516638 -3.62702875 169.99826124 -5.15380859 166.96362305 C-5.75190842 165.78289215 -5.75190842 165.78289215 -6.36209106 164.57830811 C-6.78658539 163.73133362 -7.21107971 162.88435913 -7.6484375 162.01171875 C-8.57437211 160.18277416 -9.50048571 158.35392018 -10.42675781 156.52514648 C-10.90842407 155.57098846 -11.39009033 154.61683044 -11.88635254 153.63375854 C-19.79574373 137.97987676 -27.83674246 122.47641715 -36.66210938 107.31591797 C-38.82506801 103.57178921 -40.91127982 99.78588376 -43 96 C-46.68991788 89.33168983 -50.42967656 82.69275737 -54.1875 76.0625 C-59.6682097 66.39161786 -65.07914205 56.68338329 -70.45239258 46.95239258 C-73.43911988 41.55587069 -76.4568477 36.18492177 -79.58203125 30.8671875 C-80.13882568 29.91537598 -80.69562012 28.96356445 -81.26928711 27.98291016 C-82.30573045 26.21889211 -83.35147921 24.46029317 -84.40844727 22.70849609 C-87.13897726 18.05336977 -88.80761896 14.43476442 -89 9 C-77.48614752 -18.50531425 -29.81796625 0 0 0 Z " fill="#0199E8" transform="translate(262,191)"/>
<path d="M0 0 C26.73 0 53.46 0 81 0 C81.99 0.99 81.99 0.99 83 2 C56.27 2 29.54 2 2 2 C2.1486736 31.63283902 2.1486736 31.63283902 2.30664062 61.265625 C2.37309184 73.34341135 2.43849876 85.42119717 2.49731445 97.49902344 C2.54014731 106.29381093 2.58642302 115.08857231 2.63687855 123.8833195 C2.66348673 128.54247827 2.68833998 133.20163184 2.70907402 137.86082077 C2.72862589 142.24215972 2.75276529 146.62344895 2.78049088 151.00474358 C2.789869 152.61645164 2.79754154 154.22817062 2.80341911 155.83989525 C2.81166739 158.03316014 2.82594035 160.22630393 2.84178162 162.41952515 C2.84823417 163.64919699 2.85468672 164.87886883 2.8613348 166.14580345 C2.80509429 168.94625862 2.80509429 168.94625862 4 171 C2.625 173.625 2.625 173.625 1 176 C0.67 176 0.34 176 0 176 C0 117.92 0 59.84 0 0 Z " fill="#3EA3D9" transform="translate(297,191)"/>
<path d="M0 0 C1.9821298 -0.00407078 3.96425734 -0.00941549 5.94638062 -0.01593018 C11.30385923 -0.02955024 16.66116358 -0.02432686 22.01864505 -0.01479292 C27.64110181 -0.00716768 33.26354421 -0.01424996 38.88600159 -0.01895142 C48.32686017 -0.02440109 57.76764823 -0.01723852 67.20849609 -0.00292969 C78.10179438 0.01339053 88.99492415 0.00810964 99.88821834 -0.0084089 C109.26266237 -0.02205189 118.63705586 -0.02392955 128.01150662 -0.0160929 C133.60088902 -0.01143123 139.19019239 -0.01074985 144.77956963 -0.02070236 C150.03690166 -0.02941057 155.29401787 -0.02328 160.55132675 -0.00601959 C162.47329794 -0.00207507 164.39528749 -0.00315363 166.31725121 -0.00980759 C186.53483334 -0.07331322 186.53483334 -0.07331322 195.30688477 3.38818359 C196.29688477 4.37818359 196.29688477 4.37818359 197.30688477 5.38818359 C196.52585514 5.24662684 195.74482552 5.1050701 194.94012833 4.95922375 C184.41696813 3.23697739 174.15392579 3.11102931 163.5168457 3.14526367 C161.56058692 3.1441885 159.60432845 3.14224633 157.64807129 3.13951111 C152.37563776 3.13469851 147.10328998 3.1422726 141.83086681 3.15246415 C136.29424844 3.1613014 130.7576323 3.15948613 125.2210083 3.15910339 C115.93093445 3.16003733 106.64089344 3.16868597 97.35083008 3.18237305 C86.62732168 3.19811414 75.90384916 3.20337033 65.18033004 3.20263749 C53.73205241 3.20196094 42.2837885 3.20890588 30.83551502 3.2180841 C27.54882823 3.22020995 24.26214366 3.22092452 20.97545624 3.22132301 C15.80433857 3.22233108 10.63325074 3.22846548 5.46214294 3.23848915 C3.56996595 3.24139737 1.67778552 3.24264294 -0.21439362 3.24206161 C-11.18238656 3.23996791 -21.86868088 3.39420884 -32.69311523 5.38818359 C-25.1403187 -2.16461294 -9.83988472 -0.034027 0 0 Z " fill="#D2F3FE" transform="translate(197.693115234375,155.61181640625)"/>
<path d="M0 0 C26.73 0 53.46 0 81 0 C81 58.74 81 117.48 81 178 C80.01 178 79.02 178 78 178 C78.33 119.59 78.66 61.18 79 1 C52.93 1 26.86 1 0 1 C0 0.67 0 0.34 0 0 Z " fill="#BBE9F7" transform="translate(183,190)"/>
<path d="M0 0 C26.73 0 53.46 0 81 0 C81 57.75 81 115.5 81 175 C78 171 78 171 78 169 C78.66 169 79.32 169 80 169 C80 113.89 80 58.78 80 2 C52.61 2.33 25.22 2.66 -3 3 C-2.01 2.01 -1.02 1.02 0 0 Z " fill="#2499D3" transform="translate(181,191)"/>
<path d="M0 0 C2.4964246 2.4964246 2.30832461 4.09428459 2.37939453 7.51123047 C2.37794434 8.25002441 2.37649414 8.98881836 2.375 9.75 C2.37483887 10.50555176 2.37467773 11.26110352 2.37451172 12.03955078 C2.20820015 20.38489038 0.69370837 28.95943745 -4 36 C-4.66 36 -5.32 36 -6 36 C-6.18175781 36.63808594 -6.36351562 37.27617187 -6.55078125 37.93359375 C-6.80214844 38.75988281 -7.05351562 39.58617187 -7.3125 40.4375 C-7.55613281 41.26121094 -7.79976563 42.08492187 -8.05078125 42.93359375 C-8.52064453 43.95646484 -8.52064453 43.95646484 -9 45 C-10.485 45.495 -10.485 45.495 -12 46 C-10.07231742 40.82939307 -7.49494714 36.01760827 -4.921875 31.14648438 C-0.96246993 23.42712188 0.31969839 16.64161323 0.125 8 C0.11597656 7.22527344 0.10695313 6.45054687 0.09765625 5.65234375 C0.07439388 3.76809157 0.0385364 1.88400168 0 0 Z " fill="#1D98D7" transform="translate(421,191)"/>
<path d="M0 0 C4.70999292 7.06498939 4.24577235 14.80758825 4 23 C3.67 23 3.34 23 3 23 C3 20.03 3 17.06 3 14 C2.34 14 1.68 14 1 14 C0.67 9.38 0.34 4.76 0 0 Z " fill="#ABE2F6" transform="translate(418,185)"/>
<path d="M0 0 C0.33 1.32 0.66 2.64 1 4 C0.34 4 -0.32 4 -1 4 C-1.061875 4.721875 -1.12375 5.44375 -1.1875 6.1875 C-2.24456647 9.84657625 -4.20550071 11.49211602 -7 14 C-5.53967505 8.68972746 -3.01679014 4.53669968 0 0 Z " fill="#259CD9" transform="translate(356,327)"/>
<path d="M0 0 C0.625 1.8125 0.625 1.8125 1 4 C0.01 5.485 0.01 5.485 -1 7 C-1.66 7 -2.32 7 -3 7 C-3.103125 7.598125 -3.20625 8.19625 -3.3125 8.8125 C-4.08876455 11.28243264 -5.07088921 12.32251235 -7 14 C-5.53967505 8.68972746 -3.01679014 4.53669968 0 0 Z " fill="#279DDA" transform="translate(370,303)"/>
<path d="M0 0 C0.71484375 1.671875 0.71484375 1.671875 1 4 C-0.43359375 6.578125 -0.43359375 6.578125 -2.4375 9.25 C-3.09621094 10.14203125 -3.75492187 11.0340625 -4.43359375 11.953125 C-4.95050781 12.62859375 -5.46742188 13.3040625 -6 14 C-6.33 13.34 -6.66 12.68 -7 12 C-5.56640625 9.1796875 -5.56640625 9.1796875 -3.5625 5.875 C-2.57443359 4.23144531 -2.57443359 4.23144531 -1.56640625 2.5546875 C-1.04949219 1.71164063 -0.53257812 0.86859375 0 0 Z " fill="#2098D6" transform="translate(408,237)"/>
<path d="M0 0 C0.71484375 1.671875 0.71484375 1.671875 1 4 C-0.43359375 6.578125 -0.43359375 6.578125 -2.4375 9.25 C-3.09621094 10.14203125 -3.75492187 11.0340625 -4.43359375 11.953125 C-4.95050781 12.62859375 -5.46742188 13.3040625 -6 14 C-6.33 13.34 -6.66 12.68 -7 12 C-5.56640625 9.1796875 -5.56640625 9.1796875 -3.5625 5.875 C-2.57443359 4.23144531 -2.57443359 4.23144531 -1.56640625 2.5546875 C-1.04949219 1.71164062 -0.53257812 0.86859375 0 0 Z " fill="#209AD6" transform="translate(348,341)"/>
<path d="M0 0 C0.66 0 1.32 0 2 0 C0.55049545 3.7910119 -1.15172566 7.3874638 -3 11 C-4.0326802 8.21176345 -4.04509293 7.1322726 -3.0625 4.25 C-2.711875 3.5075 -2.36125 2.765 -2 2 C-1.34 2 -0.68 2 0 2 C0 1.34 0 0.68 0 0 Z " fill="#CFF6FE" transform="translate(347,339)"/>
<path d="M0 0 C0.93065133 2.60582371 1.14917407 3.64198224 0.0625 6.25 C-0.4634375 7.11625 -0.4634375 7.11625 -1 8 C-1.66 8 -2.32 8 -3 8 C-3 8.99 -3 9.98 -3 11 C-3.66 11 -4.32 11 -5 11 C-3.77472971 6.94718288 -2.30119506 3.55639236 0 0 Z " fill="#D2F9FE" transform="translate(334,298)"/>
<path d="M0 0 C0.6875 1.6875 0.6875 1.6875 1 4 C-0.25 6.6875 -0.25 6.6875 -2 9 C-2.99 9.33 -3.98 9.66 -5 10 C-3.66511872 6.40608886 -2.03977277 3.24509304 0 0 Z " fill="#1E99D6" transform="translate(306,414)"/>
<path d="M0 0 C0.33 0.66 0.66 1.32 1 2 C0.328125 3.875 0.328125 3.875 -0.75 6 C-1.26820313 7.051875 -1.26820313 7.051875 -1.796875 8.125 C-3 10 -3 10 -6 12 C-4.43358249 7.69235185 -2.31663844 3.93828536 0 0 Z " fill="#269BD9" transform="translate(325,381)"/>
<path d="M0 0 C1 2 1 2 0.44140625 3.9453125 C0.15136719 4.66460937 -0.13867188 5.38390625 -0.4375 6.125 C-0.72496094 6.84945312 -1.01242188 7.57390625 -1.30859375 8.3203125 C-1.53675781 8.87460938 -1.76492187 9.42890625 -2 10 C-2.66 10 -3.32 10 -4 10 C-3.52449439 8.51965236 -3.04448784 7.04074979 -2.5625 5.5625 C-2.29566406 4.73878906 -2.02882812 3.91507813 -1.75390625 3.06640625 C-1 1 -1 1 0 0 Z " fill="#D0F8FE" transform="translate(145,178)"/>
</svg>
