<?xml version="1.0" encoding="UTF-8"?>
<svg version="1.1" xmlns="http://www.w3.org/2000/svg" width="1600" height="1601">
<path d="M0 0 C0.79922882 -0.00044186 1.59845764 -0.00088371 2.42190552 -0.00133896 C28.5720225 -0.00890867 54.53459872 0.49205061 80.5625 3.25 C81.39346191 3.33721313 82.22442383 3.42442627 83.08056641 3.51428223 C163.63082162 12.05481824 242.28674788 31.93519535 502.83447266 175.82177734 C505.29404178 177.85462269 507.77338815 179.86297623 510.25 181.875 C519.67233477 189.60469978 528.91153573 197.47382505 537.8515625 205.7578125 C540.11814698 207.84150255 542.41345873 209.87093101 544.75 211.875 C548.47084863 215.09511331 551.89719383 218.56878521 555.3515625 222.0703125 C557.32142811 224.01233548 559.33403633 225.83061671 561.4375 227.625 C568.78305196 233.94422733 575.53571757 240.92195361 581.8203125 248.2890625 C583.8168789 250.53631885 585.92262946 252.63894927 588.0625 254.75 C591.45518399 258.10256779 594.65350684 261.54475682 597.7578125 265.1640625 C599.77901276 267.50025501 601.85628839 269.77964851 603.9375 272.0625 C607.76286325 276.30576008 611.4134409 280.65859497 615.00390625 285.1015625 C616.88512409 287.42811454 618.79379752 289.72966809 620.71484375 292.0234375 C629.72961652 302.81279215 638.23224824 313.92585122 646.5625 325.25 C647.38766113 326.3649585 647.38766113 326.3649585 648.22949219 327.50244141 C674.24257108 362.69521166 696.75552595 400.25658008 716.5625 439.25 C717.27162089 440.62917092 717.98119295 442.00811005 718.69140625 443.38671875 C720.70200861 447.31561831 722.64336361 451.27571237 724.5625 455.25 C725.0152832 456.18457031 725.46806641 457.11914062 725.93457031 458.08203125 C760.18775904 529.2011277 782.48618553 605.60750683 799.80078125 733.90625 C799.86403091 734.61528473 799.92728058 735.32431946 799.9924469 736.05484009 C800.19747584 738.4522971 800.3833946 740.85045695 800.5625 743.25 C800.64911896 744.40737671 800.73573792 745.56475342 800.82498169 746.75720215 C801.52938268 756.95985123 801.74172891 767.11884567 801.765625 777.34375 C801.76845238 778.18382095 801.77127975 779.02389191 801.77419281 779.88941956 C801.78907482 784.3575978 801.79836681 788.82574482 801.80273438 793.29394531 C801.80706569 796.88845265 801.82076281 800.4827127 801.84375 804.07714844 C802.04796661 836.71893226 800.56584454 869.18021812 796.25 901.5625 C796.14578735 902.36655273 796.04157471 903.17060547 795.9342041 903.99902344 C785.44927416 984.75446148 762.91410964 1063.38940342 728.5625 1137.25 C728.07716797 1138.29365723 727.59183594 1139.33731445 727.09179688 1140.41259766 C701.94072998 1194.18584378 670.8437197 1244.30853808 634.5625 1291.25 C634.03205078 1291.93787598 633.50160156 1292.62575195 632.95507812 1293.33447266 C627.2059163 1300.77669774 621.27715177 1308.03379816 615.1640625 1315.1796875 C612.81992299 1317.92734045 610.56366684 1320.73800228 608.3125 1323.5625 C603.36908149 1329.63989264 597.99304048 1335.28802902 592.6015625 1340.96484375 C589.51032573 1344.22069564 586.48799739 1347.53317965 583.47265625 1350.859375 C577.5705308 1357.33628931 571.41531815 1363.5491509 565.20922852 1369.73364258 C563.36291754 1371.57454708 561.52207727 1373.42080272 559.68164062 1375.26757812 C554.34030712 1380.61191881 549.00915635 1385.90600949 543.2512207 1390.80639648 C540.50164029 1393.15687631 537.88779791 1395.6508155 535.25 1398.125 C530.43013923 1402.60867269 525.48746022 1406.8662423 520.3515625 1410.98828125 C517.87521944 1412.99640819 515.44770477 1415.05137255 513.03125 1417.13085938 C505.4449948 1423.64797321 497.54034201 1429.70309179 489.5625 1435.73046875 C487.76061061 1437.09948237 485.97074597 1438.48183908 484.1875 1439.875 C445.58261475 1469.9868105 403.08143563 1495.41300421 359.3737793 1517.34112549 C357.59383732 1518.23427537 355.81545838 1519.13053801 354.03710938 1520.02685547 C280.87136993 1556.72231936 201.23443206 1580.7711749 -253.86151123 1560.11322021 C-289.79246865 1548.07266742 -324.5714705 1533.22041512 -358.4375 1516.25 C-359.03393311 1515.95242798 -359.63036621 1515.65485596 -360.24487305 1515.3482666 C-378.80231948 1506.08942015 -396.74665093 1496.08943368 -414.4375 1485.25 C-415.50967773 1484.59435059 -416.58185547 1483.93870117 -417.68652344 1483.26318359 C-430.18040355 1475.59933345 -442.47817536 1467.72474957 -454.4375 1459.25 C-455.61195481 1458.42444452 -456.78643379 1457.59892341 -457.9609375 1456.7734375 C-483.08210128 1439.03878225 -507.43473024 1419.96547683 -530.1953125 1399.27734375 C-532.14958424 1397.51032801 -534.12809737 1395.78086471 -536.125 1394.0625 C-547.66502829 1383.94800462 -558.58023875 1373.21022068 -569.4375 1362.375 C-570.02753815 1361.78755005 -570.61757629 1361.2001001 -571.22549438 1360.59484863 C-576.97890971 1354.86132887 -582.69647957 1349.14800371 -587.96972656 1342.96289062 C-590.33086859 1340.20743945 -592.83048581 1337.58361775 -595.3125 1334.9375 C-599.77576707 1330.14004372 -604.00724429 1325.21837627 -608.109375 1320.10546875 C-610.25126628 1317.47841753 -612.44803651 1314.9168348 -614.67504883 1312.36254883 C-621.3678796 1304.67362605 -627.59531155 1296.68897313 -633.71484375 1288.5390625 C-635.47800109 1286.19618222 -637.25363509 1283.86317494 -639.03125 1281.53125 C-653.07432204 1263.04658777 -666.32512368 1244.05710327 -678.4375 1224.25 C-678.92138184 1223.46093262 -679.40526367 1222.67186523 -679.90380859 1221.85888672 C-711.72962222 1169.80791 -737.87313041 1115.05768909 -757.4375 1057.25 C-757.81036133 1056.1559082 -758.18322266 1055.06181641 -758.56738281 1053.93457031 C-773.92487815 1008.553504 -784.718688 961.66626698 -791.4375 914.25 C-791.53591187 913.55662537 -791.63432373 912.86325073 -791.73571777 912.14886475 C-796.72338324 876.70627513 -798.97230873 841.1733933 -798.82861328 805.39550781 C-798.81152303 801.10768656 -798.82172614 796.82042467 -798.83893585 792.53262234 C-798.94478737 761.3165294 -797.27703252 730.15240256 -793.1875 699.1875 C-793.08523102 698.39122192 -792.98296204 697.59494385 -792.87759399 696.77453613 C-782.68049721 617.75544951 -761.03293342 538.99841917 -717.4375 447.25 C-716.70136043 445.7515292 -715.96562796 444.25285827 -715.23046875 442.75390625 C-713.66554805 439.57724597 -712.07451415 436.41493911 -710.46386719 433.26123047 C-709.73728251 431.8374425 -709.01433294 430.41179676 -708.29394531 428.98486328 C-700.37170795 413.32690572 -691.54355744 398.24087986 -682.4375 383.25 C-681.80263672 382.20344238 -681.16777344 381.15688477 -680.51367188 380.07861328 C-664.20752159 353.31119192 -646.06514401 327.68648442 -626.4375 303.25 C-625.92864258 302.61497559 -625.41978516 301.97995117 -624.89550781 301.32568359 C-614.61054303 288.51168036 -604.05889209 275.98320959 -592.89453125 263.92578125 C-590.82355769 261.67042849 -588.80599376 259.38595134 -586.8125 257.0625 C-583.59238669 253.34165137 -580.11871479 249.91530617 -576.6171875 246.4609375 C-574.67516452 244.49107189 -572.85688329 242.47846367 -571.0625 240.375 C-564.74327267 233.02944804 -557.76554639 226.27678243 -550.3984375 219.9921875 C-548.15118115 217.9956211 -546.04855073 215.88987054 -543.9375 213.75 C-540.58493221 210.35731601 -537.14274318 207.15899316 -533.5234375 204.0546875 C-531.18724499 202.03348724 -528.90785149 199.95621161 -526.625 197.875 C-522.38661157 194.05402862 -518.03870897 190.40752669 -513.6015625 186.8203125 C-511.2246519 184.89819539 -508.87074057 182.95034731 -506.5234375 180.9921875 C-497.04577322 173.09743166 -487.39096672 165.5345262 -477.4375 158.25 C-476.7460791 157.74146484 -476.0546582 157.23292969 -475.34228516 156.70898438 C-404.76485352 104.86935245 -327.19224976 64.96298987 -157.4375 15.25 C-156.75099365 15.11140564 -156.0644873 14.97281128 -155.35717773 14.83001709 C-126.54981119 9.04006722 -97.45393376 5.0757983 -68.1875 2.5 C-67.51550568 2.44083405 -66.84351135 2.38166809 -66.15115356 2.32070923 C-61.5825164 1.92505386 -57.01138666 1.57879877 -52.4375 1.25 C-51.19282959 1.15428711 -49.94815918 1.05857422 -48.66577148 0.95996094 C-32.47910876 -0.17866762 -16.2183832 0.00410808 0 0 Z " fill="#009393" transform="translate(798.4375,-0.25)"/>
<path d="M0 0 C2.69276845 -0.00317852 5.38549208 -0.00794217 8.07824981 -0.01463282 C13.92177696 -0.02596489 19.76514834 -0.02253874 25.60866928 -0.00926208 C34.29822634 0.01042614 42.98767005 0.00709485 51.67724043 -0.00076268 C66.29961254 -0.01329721 80.92192004 -0.00698764 95.54428482 0.01042557 C110.02486902 0.02766603 124.5054242 0.03746561 138.98601913 0.0370903 C139.88742725 0.03707501 140.78883536 0.03705972 141.71755887 0.03704397 C145.37677778 0.03696215 149.03599668 0.03683092 152.69521558 0.03663234 C187.00920768 0.03482091 221.3231556 0.05469907 255.63713237 0.08549167 C286.11745951 0.11274324 316.59775526 0.125214 347.07809448 0.12387085 C349.03555537 0.12379003 350.99301625 0.12370931 352.95047714 0.12362869 C353.91821318 0.12358799 354.88594923 0.12354729 355.8830106 0.12350535 C360.75455775 0.12330376 365.6261049 0.1231226 370.49765205 0.12296486 C371.4587533 0.12293143 372.41985455 0.12289801 373.41008008 0.12286357 C398.88756392 0.1221331 424.36504384 0.13121177 449.84252441 0.14361799 C451.20207073 0.1442788 451.20207073 0.1442788 452.58908263 0.14495297 C456.23368987 0.1467294 459.8782971 0.14850621 463.5229043 0.15033488 C476.19770371 0.15665175 488.87250003 0.15967301 501.54730091 0.16055786 C517.88025644 0.16175244 534.21318608 0.16974918 550.54613055 0.18942077 C559.18219485 0.19964294 567.81822118 0.20447212 576.45429123 0.20142841 C582.22443751 0.19995778 587.9945469 0.2057801 593.76468135 0.21751603 C597.05109504 0.22400466 600.33741388 0.22630694 603.62383355 0.22199483 C607.16881625 0.2178582 610.71356887 0.22600634 614.25853157 0.23720741 C615.27195163 0.23309678 616.28537169 0.22898614 617.32950145 0.22475094 C631.86604983 0.30868001 644.88084758 3.73346743 655.63717651 14.02963257 C659.57132248 18.60135652 662.42415019 23.75190134 665.35348511 28.99447632 C667.60819811 33.00703474 669.92348626 36.98443347 672.22872925 40.96810913 C674.19908447 44.37520717 676.16277512 47.78607879 678.12545776 51.19760132 C681.38182048 56.85047234 684.67310499 62.4814112 687.98947144 68.09921265 C693.34557854 77.17492979 698.64188142 86.28559834 703.94821167 95.39047241 C705.71005505 98.4117938 707.47400504 101.43187381 709.23873901 104.45150757 C715.29805797 114.82264371 721.32890963 125.20920429 727.32077026 135.61947632 C731.91874548 143.60676892 736.55511775 151.56865952 741.25827026 159.49447632 C746.6107684 168.51457923 751.86766782 177.58722372 757.099823 186.67758179 C763.03385275 196.98457604 769.02358383 207.25847973 775.02438354 217.52670288 C777.93837867 222.51438589 780.84809594 227.50456337 783.75827026 232.49447632 C784.92491669 234.49448812 786.09158335 236.49448813 787.25827026 238.49447632 C789.5916036 242.49447632 791.92493693 246.49447632 794.25827026 250.49447632 C794.8356897 251.48431519 795.41310913 252.47415405 796.00802612 253.49398804 C797.17558754 255.49556843 798.34306791 257.49719609 799.51046753 259.49887085 C802.41278442 264.47508024 805.31646943 269.45048087 808.22311401 274.42416382 C814.85117161 285.7698828 821.43877272 297.13754821 827.98556519 308.53036499 C831.33451497 314.3431507 834.71889003 320.13238986 838.15670776 325.89291382 C838.52158295 326.50497177 838.88645813 327.11702972 839.26239014 327.74763489 C841.02493788 330.70256363 842.79269996 333.65405951 844.56832886 336.60116577 C852.54900368 349.94515378 856.53751011 362.9481936 853.07467651 378.58041382 C852.14104171 381.03653192 851.07715185 383.22352709 849.75827026 385.49447632 C849.34577026 386.23568726 848.93327026 386.97689819 848.50827026 387.74057007 C843.73263942 395.56880585 836.98840298 401.72729978 830.08200073 407.66195679 C825.81205319 411.39252593 821.8042377 415.33720465 817.82077026 419.36947632 C817.09639771 420.0976355 816.37202515 420.82579468 815.6257019 421.57601929 C813.33408723 423.87973278 811.04576374 426.18667106 808.75827026 428.49447632 C805.74041945 431.53912411 802.7191361 434.58030599 799.69577026 437.61947632 C799.01844849 438.30509644 798.34112671 438.99071655 797.64328003 439.69711304 C793.80722332 443.55253661 789.85571116 447.18661966 785.73873901 450.73886108 C782.36207537 453.73215352 779.2089951 456.94112415 776.03952026 460.15072632 C774.98625549 461.20967102 774.98625549 461.20967102 773.91171265 462.29000854 C771.69142423 464.5223899 769.47443072 466.75799743 767.25827026 468.99447632 C764.33417547 471.9453801 761.4066397 474.89280835 758.47702026 477.83822632 C757.82157227 478.50197266 757.16612427 479.16571899 756.49081421 479.84957886 C753.347471 483.00929261 750.16135153 486.05583455 746.78561401 488.96713257 C742.5219331 492.64783885 738.55979729 496.58347677 734.60202026 500.58822632 C733.85545166 501.33858154 733.10888306 502.08893677 732.33969116 502.86203003 C729.97675002 505.23707552 727.61709656 507.61534448 725.25827026 509.99447632 C722.1466638 513.13286849 719.03163272 516.26780376 715.91452026 519.40072632 C715.21532471 520.10822021 714.51612915 520.81571411 713.79574585 521.54464722 C709.91022129 525.44920595 705.9150089 529.13630987 701.74447632 532.73312378 C698.28948662 535.79698257 695.06495295 539.08554689 691.82077026 542.36947632 C691.09639771 543.0976355 690.37202515 543.82579468 689.6257019 544.57601929 C687.33408723 546.87973278 685.04576374 549.18667106 682.75827026 551.49447632 C679.74041945 554.53912411 676.7191361 557.58030599 673.69577026 560.61947632 C673.01844849 561.30509644 672.34112671 561.99071655 671.64328003 562.69711304 C667.81155851 566.54817954 663.86440977 570.1772037 659.75216675 573.72543335 C656.29518449 576.79256858 653.06753962 580.08292854 649.82077026 583.36947632 C649.09639771 584.0976355 648.37202515 584.82579468 647.6257019 585.57601929 C645.33408723 587.87973278 643.04576374 590.18667106 640.75827026 592.49447632 C637.74041945 595.53912411 634.7191361 598.58030599 631.69577026 601.61947632 C631.01844849 602.30509644 630.34112671 602.99071655 629.64328003 603.69711304 C625.80722332 607.55253661 621.85571116 611.18661966 617.73873901 614.73886108 C614.36207537 617.73215352 611.2089951 620.94112415 608.03952026 624.15072632 C607.33734375 624.85668945 606.63516724 625.56265259 605.91171265 626.29000854 C603.69142423 628.5223899 601.47443072 630.75799743 599.25827026 632.99447632 C596.33417547 635.9453801 593.4066397 638.89280835 590.47702026 641.83822632 C589.82157227 642.50197266 589.16612427 643.16571899 588.49081421 643.84957886 C585.347471 647.00929261 582.16135153 650.05583455 578.78561401 652.96713257 C574.5219331 656.64783885 570.55979729 660.58347677 566.60202026 664.58822632 C565.85545166 665.33858154 565.10888306 666.08893677 564.33969116 666.86203003 C561.97675002 669.23707552 559.61709656 671.61534448 557.25827026 673.99447632 C554.1466638 677.13286849 551.03163272 680.26780376 547.91452026 683.40072632 C547.21532471 684.10822021 546.51612915 684.81571411 545.79574585 685.54464722 C541.91022129 689.44920595 537.9150089 693.13630987 533.74447632 696.73312378 C530.28948662 699.79698257 527.06495295 703.08554689 523.82077026 706.36947632 C523.09639771 707.0976355 522.37202515 707.82579468 521.6257019 708.57601929 C519.33408723 710.87973278 517.04576374 713.18667106 514.75827026 715.49447632 C511.74041945 718.53912411 508.7191361 721.58030599 505.69577026 724.61947632 C505.01844849 725.30509644 504.34112671 725.99071655 503.64328003 726.69711304 C499.81155851 730.54817954 495.86440977 734.1772037 491.75216675 737.72543335 C488.29518449 740.79256858 485.06753962 744.08292854 481.82077026 747.36947632 C481.09639771 748.0976355 480.37202515 748.82579468 479.6257019 749.57601929 C477.33408723 751.87973278 475.04576374 754.18667106 472.75827026 756.49447632 C469.74041945 759.53912411 466.7191361 762.58030599 463.69577026 765.61947632 C463.01844849 766.30509644 462.34112671 766.99071655 461.64328003 767.69711304 C457.80722332 771.55253661 453.85571116 775.18661966 449.73873901 778.73886108 C446.36207537 781.73215352 443.2089951 784.94112415 440.03952026 788.15072632 C439.33734375 788.85668945 438.63516724 789.56265259 437.91171265 790.29000854 C435.69142423 792.5223899 433.47443072 794.75799743 431.25827026 796.99447632 C428.33417547 799.9453801 425.4066397 802.89280835 422.47702026 805.83822632 C421.82157227 806.50197266 421.16612427 807.16571899 420.49081421 807.84957886 C417.34298833 811.01379862 414.15181207 814.06455591 410.77194214 816.98080444 C406.59085468 820.59014094 402.70113291 824.44157265 398.82077026 828.36947632 C398.09639771 829.0976355 397.37202515 829.82579468 396.6257019 830.57601929 C394.33408723 832.87973278 392.04576374 835.18667106 389.75827026 837.49447632 C386.74041945 840.53912411 383.7191361 843.58030599 380.69577026 846.61947632 C380.01844849 847.30509644 379.34112671 847.99071655 378.64328003 848.69711304 C374.81155851 852.54817954 370.86440977 856.1772037 366.75216675 859.72543335 C363.29518449 862.79256858 360.06753962 866.08292854 356.82077026 869.36947632 C356.09639771 870.0976355 355.37202515 870.82579468 354.6257019 871.57601929 C352.33408723 873.87973278 350.04576374 876.18667106 347.75827026 878.49447632 C344.74041945 881.53912411 341.7191361 884.58030599 338.69577026 887.61947632 C338.01844849 888.30509644 337.34112671 888.99071655 336.64328003 889.69711304 C324.48158095 901.92021215 312.31571749 912.77232846 294.25827026 912.99447632 C279.10817375 912.80809552 268.63249658 905.75941076 258.24850464 895.19955444 C257.40610229 894.32750366 256.56369995 893.45545288 255.69577026 892.55697632 C253.9990183 890.81628714 252.29983379 889.07796547 250.59811401 887.34213257 C249.85940063 886.57908813 249.12068726 885.8160437 248.35958862 885.02987671 C246.26288073 882.98629985 244.13834826 881.06774961 241.92453003 879.15634155 C237.85392339 875.62528916 234.04242002 871.89068958 230.25827026 868.05697632 C229.23829956 867.03132568 229.23829956 867.03132568 228.19772339 865.98495483 C225.32601883 863.09709858 222.46038589 860.20324556 219.59420776 857.30990601 C217.48434239 855.18181907 215.37137381 853.05684715 213.25827026 850.93197632 C212.62469604 850.29010376 211.99112183 849.6482312 211.33834839 848.98690796 C208.25046265 845.88241632 205.11576105 842.89562531 201.79928589 840.03549194 C197.53160497 836.34960326 193.56431056 832.41004271 189.60202026 828.40072632 C188.48216736 827.27519348 188.48216736 827.27519348 187.33969116 826.12692261 C184.18125914 822.95231128 181.02887747 819.77171716 177.87594604 816.59164429 C175.55757281 814.25507271 173.23611506 811.92159633 170.91452026 809.58822632 C170.21532471 808.88073242 169.51612915 808.17323853 168.79574585 807.44430542 C164.91022129 803.53974669 160.9150089 799.85264276 156.74447632 796.25582886 C153.28948662 793.19197007 150.06495295 789.90340574 146.82077026 786.61947632 C145.73421143 785.52723755 145.73421143 785.52723755 144.6257019 784.41293335 C141.56284603 781.33390681 138.50604716 778.24889309 135.44869995 775.16439819 C133.19982909 772.89732173 130.94786788 770.63334666 128.69577026 768.36947632 C128.01844849 767.6838562 127.34112671 766.99823608 126.64328003 766.2918396 C123.44002087 763.07240834 120.1973732 759.9618902 116.75827026 756.99447632 C112.58119277 753.39030455 108.6966245 749.54281634 104.82077026 745.61947632 C103.73421143 744.52723755 103.73421143 744.52723755 102.6257019 743.41293335 C99.56284603 740.33390681 96.50604716 737.24889309 93.44869995 734.16439819 C91.19982909 731.89732173 88.94786788 729.63334666 86.69577026 727.36947632 C86.01844849 726.6838562 85.34112671 725.99823608 84.64328003 725.2918396 C80.80722332 721.43641602 76.85571116 717.80233298 72.73873901 714.25009155 C69.36207537 711.25679912 66.2089951 708.04782849 63.03952026 704.83822632 C61.98625549 703.77928162 61.98625549 703.77928162 60.91171265 702.69894409 C57.9444326 699.71550257 54.98321663 696.72606922 52.02145386 693.7371521 C49.84208561 691.53957053 47.65962079 689.34509694 45.47702026 687.15072632 C44.82157227 686.48697998 44.16612427 685.82323364 43.49081421 685.13937378 C40.347471 681.97966003 37.16135153 678.93311809 33.78561401 676.02182007 C29.5219331 672.34111379 25.55979729 668.40547587 21.60202026 664.40072632 C20.48216736 663.27519348 20.48216736 663.27519348 19.33969116 662.12692261 C16.18125914 658.95231128 13.02887747 655.77171716 9.87594604 652.59164429 C7.55757281 650.25507271 5.23611506 647.92159633 2.91452026 645.58822632 C2.21532471 644.88073242 1.51612915 644.17323853 0.79574585 643.44430542 C-3.09411395 639.53539021 -7.09368693 635.84322588 -11.26895142 632.24240112 C-14.64361569 629.25237466 -17.79358919 626.04521148 -20.96047974 622.83822632 C-22.01374451 621.77928162 -22.01374451 621.77928162 -23.08828735 620.69894409 C-26.0555674 617.71550257 -29.01678337 614.72606922 -31.97854614 611.7371521 C-34.15791439 609.53957053 -36.34037921 607.34509694 -38.52297974 605.15072632 C-39.17842773 604.48697998 -39.83387573 603.82323364 -40.50918579 603.13937378 C-43.65701167 599.97515401 -46.84818793 596.92439672 -50.22805786 594.00814819 C-54.40914532 590.3988117 -58.29886709 586.54737998 -62.17922974 582.61947632 C-63.26578857 581.52723755 -63.26578857 581.52723755 -64.3742981 580.41293335 C-67.43715397 577.33390681 -70.49395284 574.24889309 -73.55130005 571.16439819 C-75.80017091 568.89732173 -78.05213212 566.63334666 -80.30422974 564.36947632 C-80.98155151 563.6838562 -81.65887329 562.99823608 -82.35671997 562.2918396 C-85.55997913 559.07240834 -88.8026268 555.9618902 -92.24172974 552.99447632 C-96.41880723 549.39030455 -100.3033755 545.54281634 -104.17922974 541.61947632 C-105.26578857 540.52723755 -105.26578857 540.52723755 -106.3742981 539.41293335 C-109.43715397 536.33390681 -112.49395284 533.24889309 -115.55130005 530.16439819 C-117.80017091 527.89732173 -120.05213212 525.63334666 -122.30422974 523.36947632 C-122.98155151 522.6838562 -123.65887329 521.99823608 -124.35671997 521.2918396 C-127.55997913 518.07240834 -130.8026268 514.9618902 -134.24172974 511.99447632 C-138.41880723 508.39030455 -142.3033755 504.54281634 -146.17922974 500.61947632 C-147.26578857 499.52723755 -147.26578857 499.52723755 -148.3742981 498.41293335 C-151.43715397 495.33390681 -154.49395284 492.24889309 -157.55130005 489.16439819 C-159.80017091 486.89732173 -162.05213212 484.63334666 -164.30422974 482.36947632 C-165.3202124 481.34104614 -165.3202124 481.34104614 -166.35671997 480.2918396 C-170.19277668 476.43641602 -174.14428884 472.80233298 -178.26126099 469.25009155 C-181.63792463 466.25679912 -184.7910049 463.04782849 -187.96047974 459.83822632 C-189.01374451 458.77928162 -189.01374451 458.77928162 -190.08828735 457.69894409 C-193.0555674 454.71550257 -196.01678337 451.72606922 -198.97854614 448.7371521 C-201.15791439 446.53957053 -203.34037921 444.34509694 -205.52297974 442.15072632 C-206.17842773 441.48697998 -206.83387573 440.82323364 -207.50918579 440.13937378 C-211.2783528 436.35057694 -215.1643605 432.77887516 -219.20883179 429.28692627 C-225.347221 423.87457616 -231.08320464 418.00062819 -236.89651489 412.24472046 C-238.54067549 410.62217217 -240.19107064 409.00591684 -241.84768677 407.39608765 C-264.13620369 385.72903066 -264.13620369 385.72903066 -264.58596802 369.72982788 C-264.76930901 353.79953249 -259.12261964 343.81466298 -250.69241333 330.7605896 C-248.09529796 326.7036349 -245.58079398 322.59558834 -243.05422974 318.49447632 C-238.37135781 310.91591882 -233.65795866 303.35699055 -228.92922974 295.80697632 C-222.90673835 286.18988847 -216.95192758 276.53260417 -211.01638794 266.86166382 C-206.62543834 259.71677675 -202.17282457 252.61480465 -197.67410278 245.53744507 C-193.82671978 239.46570254 -190.08842178 233.33139463 -186.36672974 227.18197632 C-181.14780948 218.55866106 -175.79120253 210.03568193 -170.34939575 201.55160522 C-166.55558334 195.61637288 -162.89192217 189.6186691 -159.30422974 183.55697632 C-154.89575027 176.1099386 -150.2536563 168.84523849 -145.49172974 161.61947632 C-140.85726784 154.58648724 -136.46327245 147.54523072 -132.37454224 140.18197632 C-129.06196087 134.33972756 -125.35050845 128.73493957 -121.72805786 123.08236694 C-116.00521031 114.14839984 -110.41679557 105.13549983 -104.85061646 96.10336304 C-102.15361425 91.73004504 -99.44722175 87.36254532 -96.74172974 82.99447632 C-93.51337273 77.78074022 -90.2858203 72.56651395 -87.06204224 67.34994507 C-81.18515762 57.84295542 -75.28823998 48.3487452 -69.36672974 38.86947632 C-68.76038696 37.89840942 -68.15404419 36.92734253 -67.52932739 35.92684937 C-65.77040403 33.11377838 -64.00630655 30.30400353 -62.24172974 27.49447632 C-61.62056274 26.49819214 -60.99939575 25.50190796 -60.35940552 24.47543335 C-59.44264038 23.01532837 -59.44264038 23.01532837 -58.50735474 21.52572632 C-57.68799438 20.21571655 -57.68799438 20.21571655 -56.8520813 18.87924194 C-50.21015679 9.04323246 -39.97958229 3.47126713 -28.52853289 0.87325045 C-19.19628697 -0.67249404 -9.42334079 -0.0402152 0 0 Z " fill="#FEFEFE" transform="translate(505.2417297363281,403.5055236816406)"/>
<path d="M0 0 C161.37 0 322.74 0 489 0 C489 29.7 489 59.4 489 90 C428.61 90 368.22 90 306 90 C306 110.79 306 131.58 306 153 C310.29 153 314.58 153 319 153 C322.96990411 153.22466168 326.91465689 153.48344324 330.875 153.8125 C331.98593018 153.90305664 333.09686035 153.99361328 334.24145508 154.08691406 C336.61487557 154.28378007 338.98800232 154.48421591 341.36083984 154.68798828 C343.76959418 154.89450834 346.17877839 155.0960795 348.58837891 155.29248047 C379.65354654 157.84526512 410.46485033 162.51560611 440.88867188 169.30615234 C443.80275087 169.95601208 446.72094283 170.5829414 449.640625 171.20703125 C475.14534447 176.80574253 513.24364598 186.55621799 529.11303711 209.06542969 C533.44563845 216.45985353 532.86645549 224.39464362 532.796875 232.6875 C532.80092551 234.39803563 532.80675587 236.10856787 532.81427002 237.8190918 C532.82307494 241.38982287 532.81039291 244.95964836 532.78222656 248.53027344 C532.7480411 253.08324785 532.76774649 257.63409973 532.80366135 262.18699646 C532.82545241 265.71496266 532.81839263 269.2424343 532.80289459 272.77041626 C532.79892219 274.44797016 532.803697 276.12557052 532.81777191 277.80307007 C532.889136 288.69627679 531.85963704 296.53156142 524.27581787 304.90332031 C501.41562118 327.8838662 459.31019241 335.76668452 428.74365234 341.48242188 C426.10125132 341.98089938 423.46661503 342.50877298 420.83203125 343.046875 C392.48081503 348.77221682 363.78343047 351.53635361 335 354 C333.7325293 354.11037598 332.46505859 354.22075195 331.15917969 354.33447266 C322.69489291 355.01270838 314.56034216 355 306 355 C306 406.15 306 457.3 306 510 C265.74 510 225.48 510 184 510 C184 458.85 184 407.7 184 355 C177.73 355 171.46 355 165 355 C161.71880365 354.84491417 158.50376551 354.67129796 155.2421875 354.37109375 C154.42605988 354.3016304 153.60993225 354.23216705 152.76907349 354.16059875 C150.13651659 353.93114805 147.50578366 353.68641922 144.875 353.4375 C143.94768066 353.35141479 143.02036133 353.26532959 142.06494141 353.17663574 C-5.18412183 339.34637262 -5.18412183 339.34637262 -37 302 C-43.37567382 294.03535091 -42.74883208 285.07755281 -42.69921875 275.41015625 C-42.70513769 273.69819139 -42.71238859 271.98623066 -42.72090149 270.27427673 C-42.73274007 266.69768602 -42.72614443 263.12171926 -42.70678711 259.54516602 C-42.68391245 254.98436639 -42.71068503 250.42543153 -42.75184917 245.86481571 C-42.77754798 242.33259149 -42.77481458 238.8008063 -42.76395607 235.26852226 C-42.76247936 233.58816268 -42.77004278 231.90776776 -42.78720665 230.22749519 C-42.88078712 219.29291216 -41.89826466 211.37281664 -34.1804657 203.03407288 C-28.4533015 197.37981716 -21.06130333 193.7159803 -14 190 C-12.92621094 189.42378906 -11.85242188 188.84757813 -10.74609375 188.25390625 C30.13378498 167.74291263 79.95538961 161.83287011 125 157 C127.59515663 156.71057132 130.19021045 156.42021915 132.78515625 156.12890625 C149.9679161 154.22587179 166.64274308 153 184 153 C184 132.21 184 111.42 184 90 C123.28 90 62.56 90 0 90 C0 60.3 0 30.6 0 0 Z " fill="#019494" transform="translate(556,549)"/>
<path d="M0 0 C0 21.78 0 43.56 0 66 C40.26 66 80.52 66 122 66 C122 44.22 122 22.44 122 0 C148.50443154 1.15236659 148.50443154 1.15236659 156.734375 2.015625 C157.69478195 2.11151917 158.6551889 2.20741333 159.6446991 2.30621338 C162.68070573 2.61263831 165.71538838 2.9300755 168.75 3.25 C169.80494659 3.35948975 170.85989319 3.46897949 171.94680786 3.58178711 C301.14900909 17.03744022 301.14900909 17.03744022 342 52 C337.5139756 63.14111554 319.80800612 68.89623547 309.58984375 73.5546875 C297.13009317 78.8475781 284.01441447 82.35596395 271 86 C270.12746582 86.24637207 269.25493164 86.49274414 268.35595703 86.74658203 C228.75018113 97.77388165 186.95321613 101.9003457 146.07366943 104.84893799 C144.06524568 104.995247 142.05727004 105.14766765 140.04931641 105.30029297 C49.49835058 112.18007807 -43.68392439 108.76781116 -217 57.0625 C-218.8125 55.41015625 -218.8125 55.41015625 -220 54 C-220 52 -220 52 -218.375 50.37109375 C-205.64005206 40.00300291 -191.41354248 33.37428525 -176 28 C-175.28070312 27.74653809 -174.56140625 27.49307617 -173.8203125 27.23193359 C-122.9710062 9.57464966 -67.97019034 4.44576806 -14.6484375 0.69921875 C-13.63041046 0.62762039 -12.61238342 0.55602203 -11.56350708 0.48225403 C-10.62393158 0.41809799 -9.68435608 0.35394196 -8.71630859 0.2878418 C-7.89826752 0.23186325 -7.08022644 0.1758847 -6.23739624 0.11820984 C-4.16078711 0.00849497 -2.07950543 0 0 0 Z " fill="#FCFEFE" transform="translate(740,750)"/>
<path d="M0 0 C1.17482461 0.00351175 1.17482461 0.00351175 2.37338305 0.00709444 C3.2015404 0.005641 4.02969775 0.00418756 4.88295078 0.00269008 C7.6941308 -0.00099704 10.50525751 0.00252896 13.31643724 0.00595194 C15.33774007 0.00480119 17.35904269 0.00321398 19.38034487 0.0012247 C24.96293169 -0.00297497 30.54550156 -0.00087508 36.12808847 0.00221092 C42.13769064 0.00446222 48.14728977 0.00098676 54.15689135 -0.00176901 C65.25871758 -0.00597046 76.36053912 -0.00558975 87.46236539 -0.00285754 C97.71682384 -0.00034613 107.9712803 0.00031666 118.225739 -0.00088018 C119.24438309 -0.00099476 119.24438309 -0.00099476 120.28360584 -0.00111165 C123.03998747 -0.00142297 125.7963691 -0.00174137 128.55275072 -0.00207142 C154.43185919 -0.0051333 180.31096419 -0.00235239 206.19007212 0.00302548 C229.20322433 0.0077714 252.21637102 0.00734679 275.22952318 0.00256449 C301.06003323 -0.00278528 326.89054021 -0.00491619 352.72105074 -0.00182325 C355.47253211 -0.00150251 358.22401349 -0.00118967 360.97549486 -0.00088018 C361.65302467 -0.0008011 362.33055449 -0.00072203 363.0286155 -0.00064055 C373.27889449 0.00049893 383.52917126 -0.00083709 393.77944994 -0.00335974 C405.42957739 -0.00621252 417.07969958 -0.00542127 428.72982645 -0.00007899 C434.68019402 0.00255917 440.63055033 0.00356115 446.58091784 0.00027186 C452.01871425 -0.00268876 457.45648888 -0.00110225 462.89428329 0.00424941 C464.87070475 0.00537461 466.84712801 0.00478017 468.82354832 0.00237362 C471.49167605 -0.00062816 474.15972722 0.00241181 476.82785082 0.00709444 C477.61106722 0.00475328 478.39428363 0.00241211 479.20123386 0 C484.48646659 0.01878524 484.48646659 0.01878524 485.60061693 1.13293558 C485.70113757 3.92218394 485.73677581 6.68670331 485.73001146 9.47644144 C485.73176378 10.35119623 485.7335161 11.22595103 485.73532152 12.12721354 C485.73974173 15.03408867 485.7368012 17.94090352 485.73342943 20.84777933 C485.73410248 22.85938122 485.73507252 24.87098303 485.7363286 26.88258463 C485.73780585 31.10528434 485.73565037 35.32796293 485.73098803 39.55066019 C485.72529438 44.97274273 485.72856727 50.39477573 485.73456049 55.81685644 C485.73816848 59.97315445 485.73702635 64.12944065 485.7344327 68.285739 C485.7337639 70.28529529 485.73459021 72.28485263 485.73691225 74.28440768 C485.73944226 77.07631251 485.73559305 79.86813641 485.73001146 82.66003519 C485.73203569 83.49284006 485.73405993 84.32564493 485.7361455 85.18368632 C485.71488014 90.90440917 485.71488014 90.90440917 484.60061693 93.13293558 C424.21061693 93.13293558 363.82061693 93.13293558 301.60061693 93.13293558 C301.60061693 113.26293558 301.60061693 133.39293558 301.60061693 154.13293558 C309.52061693 154.13293558 317.44061693 154.13293558 325.60061693 154.13293558 C327.25061693 154.46293558 328.90061693 154.79293558 330.60061693 155.13293558 C330.60061693 155.46293558 330.60061693 155.79293558 330.60061693 156.13293558 C328.03803982 156.16055618 325.47577574 156.18006402 322.91311693 156.19543558 C322.2112224 156.20381449 321.50932787 156.2121934 320.78616381 156.22082621 C313.96219083 156.25115498 307.48450891 155.66246574 300.60061693 155.13293558 C300.60061693 134.34293558 300.60061693 113.55293558 300.60061693 92.13293558 C360.99061693 92.13293558 421.38061693 92.13293558 483.60061693 92.13293558 C483.60061693 62.43293558 483.60061693 32.73293558 483.60061693 2.13293558 C322.23061693 2.13293558 160.86061693 2.13293558 -5.39938307 2.13293558 C-5.39938307 31.50293558 -5.39938307 60.87293558 -5.39938307 91.13293558 C-5.72938307 91.13293558 -6.05938307 91.13293558 -6.39938307 91.13293558 C-6.42250522 79.41566771 -6.4402975 67.69840522 -6.45119524 55.98111922 C-6.45642435 50.54091247 -6.4635225 45.10072127 -6.47482252 39.66052347 C-6.48565041 34.41507857 -6.49165969 29.16964866 -6.49426031 23.92419344 C-6.49611474 21.91822612 -6.49973568 19.91225967 -6.50511312 17.9062987 C-6.51232226 15.10690734 -6.51337406 12.3075788 -6.51290846 9.50817972 C-6.51650373 8.67020853 -6.52009901 7.83223734 -6.52380323 6.96887308 C-6.51121763 0.02314275 -6.51121763 0.02314275 0 0 Z " fill="#BEEEEE" transform="translate(561.3993830680847,546.8670644164085)"/>
<path d="M0 0 C161.04 0 322.08 0 488 0 C488 29.37 488 58.74 488 89 C487.67 89 487.34 89 487 89 C486.67 60.29 486.34 31.58 486 2 C439.96638561 1.98310043 393.93277127 1.96696852 347.89915466 1.95765686 C346.8780069 1.95744977 346.8780069 1.95744977 345.83622989 1.95723851 C331.04316289 1.95424595 316.25009586 1.95147572 301.45702878 1.94893467 C294.20304197 1.94768728 286.94905516 1.94639073 279.69506836 1.94506836 C278.9731901 1.9449376 278.25131184 1.94480684 277.50755848 1.94467212 C254.08817301 1.94040694 230.66878995 1.93289278 207.24940594 1.92370278 C183.19306362 1.91427992 159.13672263 1.90811682 135.0803785 1.90608501 C131.68651451 1.90579683 128.29265053 1.9054712 124.89878654 1.90512276 C124.23079229 1.90505533 123.56279803 1.90498791 122.87456152 1.90491844 C112.09985076 1.90373441 101.32514411 1.89909012 90.55043503 1.89316797 C79.73145317 1.88729474 68.9124756 1.88510974 58.09349222 1.88649862 C52.22616656 1.88714233 46.358853 1.8861208 40.49152946 1.88079453 C35.12956193 1.87596224 29.76761475 1.87566022 24.40564632 1.87910111 C22.45678501 1.87952697 20.50792249 1.8782298 18.55906362 1.87511682 C15.92809612 1.87115567 13.29720395 1.87323483 10.66623783 1.87695217 C9.893966 1.87432516 9.12169416 1.87169814 8.32602015 1.86899152 C4.87322686 1.56745821 4.87322686 1.56745821 2 3 C1.67 31.05 1.34 59.1 1 88 C61.06 88 121.12 88 183 88 C183 88.33 183 88.66 183 89 C122.61 89 62.22 89 0 89 C0 59.63 0 30.26 0 0 Z " fill="#108C8B" transform="translate(557,549)"/>
<path d="M0 0 C0.74958984 0.05220703 1.49917969 0.10441406 2.27148438 0.15820312 C4.11887082 0.28763784 5.96574371 0.42436518 7.8125 0.5625 C7.8125 0.8925 7.8125 1.2225 7.8125 1.5625 C-37.48665046 4.96923414 -82.80317887 5.38426842 -128.1875 3.5625 C-128.1875 3.2325 -128.1875 2.9025 -128.1875 2.5625 C-127.00648209 2.5470388 -127.00648209 2.5470388 -125.80160522 2.53126526 C-79.33324039 1.93861988 -79.33324039 1.93861988 -32.86846924 1.12179565 C-30.92021794 1.0823811 -28.97193393 1.04455023 -27.02362061 1.0083313 C-24.36457938 0.95826133 -21.70574614 0.90207809 -19.046875 0.84375 C-18.28152435 0.83020981 -17.51617371 0.81666962 -16.72763062 0.80271912 C-10.94059511 0.66306158 -5.85379328 -0.44478604 0 0 Z " fill="#C5EDEE" transform="translate(876.1875,853.4375)"/>
<path d="M0 0 C4.95 0 9.9 0 15 0 C15 50.82 15 101.64 15 154 C14.67 154 14.34 154 14 154 C13.505 79.255 13.505 79.255 13 3 C10.43106162 1.71553081 8.23423663 1.67022856 5.375 1.4375 C4.37210938 1.35371094 3.36921875 1.26992188 2.3359375 1.18359375 C1.56507813 1.12300781 0.79421875 1.06242188 0 1 C0 0.67 0 0.34 0 0 Z " fill="#E7FFFF" transform="translate(725,904)"/>
<path d="M0 0 C0.33 0.99 0.66 1.98 1 3 C-1.90780488 5.98206129 -4.82541509 8.95406794 -7.75244141 11.91723633 C-8.74639553 12.92626019 -9.73763835 13.93796245 -10.72607422 14.95239258 C-12.14884277 16.41162404 -13.58114262 17.86088722 -15.015625 19.30859375 C-15.87446289 20.18314209 -16.73330078 21.05769043 -17.61816406 21.95874023 C-19.88750566 23.90359111 -21.08381239 24.64285557 -24 25 C-19.18132753 19.19108254 -13.98743592 13.86934448 -8.625 8.5625 C-7.79355469 7.73556641 -6.96210937 6.90863281 -6.10546875 6.05664062 C-4.0725896 4.03544469 -2.03740037 2.01663665 0 0 Z " fill="#169291" transform="translate(1243,900)"/>
<path d="M0 0 C0.74958984 0.05220703 1.49917969 0.10441406 2.27148438 0.15820312 C4.11887082 0.28763784 5.96574371 0.42436518 7.8125 0.5625 C7.8125 0.8925 7.8125 1.2225 7.8125 1.5625 C-8.87111914 2.8196224 -25.44418637 3.91706429 -42.1875 3.5625 C-42.1875 3.2325 -42.1875 2.9025 -42.1875 2.5625 C-41.26412842 2.50715088 -40.34075684 2.45180176 -39.3894043 2.39477539 C-35.96194546 2.18739719 -32.53474948 1.97639758 -29.10766602 1.76293945 C-27.62468216 1.67131716 -26.14160846 1.58113706 -24.65844727 1.49243164 C-22.52595127 1.36463894 -20.39383271 1.23165421 -18.26171875 1.09765625 C-16.97869873 1.019104 -15.69567871 0.94055176 -14.3737793 0.85961914 C-2.84065179 -0.21583992 -2.84065179 -0.21583992 0 0 Z " fill="#C8F5F6" transform="translate(876.1875,853.4375)"/>
<path d="M0 0 C0 4.16743727 -2.2779799 5.8824673 -5 8.75 C-5.49604736 9.28206055 -5.99209473 9.81412109 -6.50317383 10.36230469 C-10.43107849 14.523569 -14.5593515 18.38640638 -19 22 C-19.66 21.67 -20.32 21.34 -21 21 C-14.07 14.07 -7.14 7.14 0 0 Z " fill="#199090" transform="translate(945,1191)"/>
<path d="M0 0 C7.78795145 -0.20162981 15.33335064 0.5877878 23.0625 1.5 C24.30966797 1.64308594 25.55683594 1.78617188 26.84179688 1.93359375 C29.89508332 2.28454621 32.94775468 2.6401241 36 3 C36 3.33 36 3.66 36 4 C10.96551724 4.42672414 10.96551724 4.42672414 0 1 C0 0.67 0 0.34 0 0 Z " fill="#259697" transform="translate(666,850)"/>
<path d="M0 0 C0 3 0 3 -2.125 5.25 C-3.07375 6.1575 -4.0225 7.065 -5 8 C-6.01120437 9.17797367 -7.01093101 10.36588027 -8 11.5625 C-10.41864101 14.43228649 -12.96465016 16.76812511 -16 19 C-16.66 18.67 -17.32 18.34 -18 18 C-12.06 12.06 -6.12 6.12 0 0 Z " fill="#17908C" transform="translate(856,1278)"/>
<path d="M0 0 C0 4.91075921 -3.69530187 7.60955122 -7 11 C-8.94602014 12.76450416 -10.92714711 14.3821636 -13 16 C-13.66 15.67 -14.32 15.34 -15 15 C-10.05 10.05 -5.1 5.1 0 0 Z " fill="#1C9694" transform="translate(912,1223)"/>
<path d="M0 0 C0.33 0.66 0.66 1.32 1 2 C-2.7569946 7.54603965 -6.34629976 11.38163185 -12 15 C-12.66 14.67 -13.32 14.34 -14 14 C-9.38 9.38 -4.76 4.76 0 0 Z " fill="#189292" transform="translate(1069,1070)"/>
<path d="M0 0 C2.97 0.495 2.97 0.495 6 1 C6.33 1.99 6.66 2.98 7 4 C9.33203016 6.64296752 10.61673278 7.87224426 14 9 C15.1875 12.0625 15.1875 12.0625 16 15 C11.99513132 11.59160112 8.01406295 8.15762253 4.0625 4.6875 C3.29035156 4.01074219 2.51820313 3.33398438 1.72265625 2.63671875 C1.15417969 2.09660156 0.58570313 1.55648438 0 1 C0 0.67 0 0.34 0 0 Z " fill="#E3FCFC" transform="translate(581,1120)"/>
<path d="M0 0 C4.95 0 9.9 0 15 0 C15 4.95 15 9.9 15 15 C14.67 15 14.34 15 14 15 C13.95101562 14.14535156 13.90203125 13.29070313 13.8515625 12.41015625 C13.77679687 11.30542969 13.70203125 10.20070313 13.625 9.0625 C13.55539062 7.96035156 13.48578125 6.85820313 13.4140625 5.72265625 C13.27742187 4.82417969 13.14078125 3.92570313 13 3 C10.43106162 1.71553081 8.23423663 1.67022856 5.375 1.4375 C4.37210938 1.35371094 3.36921875 1.26992188 2.3359375 1.18359375 C1.56507813 1.12300781 0.79421875 1.06242188 0 1 C0 0.67 0 0.34 0 0 Z " fill="#D7F7F6" transform="translate(725,904)"/>
<path d="M0 0 C6.20648988 -0.33249053 10.31325646 0.45077014 16 3 C16.66 3.66 17.32 4.32 18 5 C11.69632197 4.41632611 6.01339937 2.95928381 0 1 C0 0.67 0 0.34 0 0 Z " fill="#CFF3F3" transform="translate(576,831)"/>
<path d="M0 0 C0.33 0.99 0.66 1.98 1 3 C-0.09283577 4.03295436 -1.19970579 5.05107835 -2.3125 6.0625 C-2.92738281 6.63097656 -3.54226563 7.19945312 -4.17578125 7.78515625 C-4.77777344 8.18605469 -5.37976563 8.58695313 -6 9 C-6.99 8.67 -7.98 8.34 -9 8 C-6.03 5.36 -3.06 2.72 0 0 Z " fill="#229998" transform="translate(837,1297)"/>
<path d="M0 0 C-0.33 1.32 -0.66 2.64 -1 4 C-1.66 4 -2.32 4 -3 4 C-3.66 5.32 -4.32 6.64 -5 8 C-6.32 7.67 -7.64 7.34 -9 7 C-7.88121617 5.82737096 -6.75476949 4.66204862 -5.625 3.5 C-4.68527344 2.52546875 -4.68527344 2.52546875 -3.7265625 1.53125 C-2 0 -2 0 0 0 Z " fill="#269B9B" transform="translate(1169,974)"/>
<path d="M0 0 C0.33 1.32 0.66 2.64 1 4 C0.34 4 -0.32 4 -1 4 C-1.16822266 4.87398437 -1.16822266 4.87398437 -1.33984375 5.765625 C-2.06000876 8.20310657 -3.04379395 9.7250586 -4.5625 11.75 C-5.24505859 12.67039062 -5.24505859 12.67039062 -5.94140625 13.609375 C-6.29074219 14.06828125 -6.64007813 14.5271875 -7 15 C-7.33 14.34 -7.66 13.68 -8 13 C-6.75506252 10.71025684 -5.47358472 8.55809966 -4.0625 6.375 C-3.67642578 5.76398437 -3.29035156 5.15296875 -2.89257812 4.5234375 C-1.93553674 3.0110758 -0.96867189 1.50493883 0 0 Z " fill="#D5F7F7" transform="translate(338,600)"/>
<path d="M0 0 C2.27024968 -0.08097324 4.54132075 -0.13917704 6.8125 -0.1875 C8.07707031 -0.22230469 9.34164062 -0.25710938 10.64453125 -0.29296875 C14 0 14 0 17 3 C11.39 2.34 5.78 1.68 0 1 C0 0.67 0 0.34 0 0 Z " fill="#C9F3F2" transform="translate(638,845)"/>
<path d="M0 0 C0 3 0 3 -2.25 5.4375 C-3.1575 6.283125 -4.065 7.12875 -5 8 C-6.1446875 9.1446875 -6.1446875 9.1446875 -7.3125 10.3125 C-7.869375 10.869375 -8.42625 11.42625 -9 12 C-9.66 11.67 -10.32 11.34 -11 11 C-7.37 7.37 -3.74 3.74 0 0 Z " fill="#1B8F90" transform="translate(1150,991)"/>
<path d="M0 0 C0.33 0.66 0.66 1.32 1 2 C-1.78999451 5.48749314 -4.25235831 8.50157221 -8 11 C-8.66 10.67 -9.32 10.34 -10 10 C-6.7 6.7 -3.4 3.4 0 0 Z " fill="#168E8D" transform="translate(1187,955)"/>
<path d="M0 0 C2.375 0.25 2.375 0.25 5 1 C6.0625 2.8125 6.0625 2.8125 7 5 C8.29470975 6.37086915 9.62150897 7.71340837 11 9 C10.67 9.66 10.34 10.32 10 11 C8.33035479 9.35718838 6.6643536 7.71067239 5 6.0625 C4.071875 5.14597656 3.14375 4.22945312 2.1875 3.28515625 C0 1 0 1 0 0 Z " fill="#E7FEFE" transform="translate(754,1288)"/>
<path d="M0 0 C0 0.66 0 1.32 0 2 C-5.24385089 3.7479503 -9.47322267 4.19392201 -15 4 C-15 3.67 -15 3.34 -15 3 C-13.25183142 2.49363393 -11.50137737 1.99515381 -9.75 1.5 C-8.77546875 1.2215625 -7.8009375 0.943125 -6.796875 0.65625 C-4 0 -4 0 0 0 Z " fill="#C9F2F3" transform="translate(598,769)"/>
<path d="M0 0 C0.33 0.66 0.66 1.32 1 2 C-0.98 4.31 -2.96 6.62 -5 9 C-5.99 8.67 -6.98 8.34 -8 8 C-5.36 5.36 -2.72 2.72 0 0 Z " fill="#239594" transform="translate(1033,1105)"/>
<path d="M0 0 C0 4.38968456 -2.12805101 5.76905739 -5 9 C-5.99 8.67 -6.98 8.34 -8 8 C-5.36 5.36 -2.72 2.72 0 0 Z " fill="#1F9391" transform="translate(1196,946)"/>
<path d="M0 0 C1.77155654 0.11429397 3.54226229 0.24183037 5.3125 0.375 C6.79169922 0.47941406 6.79169922 0.47941406 8.30078125 0.5859375 C11 1 11 1 14 3 C4.58997722 3.3690205 4.58997722 3.3690205 0 1 C0 0.67 0 0.34 0 0 Z " fill="#D3F7F8" transform="translate(614,890)"/>
<path d="M0 0 C0.33 0.99 0.66 1.98 1 3 C-1.64 5.31 -4.28 7.62 -7 10 C-7.66 9.67 -8.32 9.34 -9 9 C-6.03 6.03 -3.06 3.06 0 0 Z " fill="#1E9393" transform="translate(986,1151)"/>
<path d="M0 0 C0.33 0.99 0.66 1.98 1 3 C-0.65 4.65 -2.3 6.3 -4 8 C-4.99 7.67 -5.98 7.34 -7 7 C-4.69 4.69 -2.38 2.38 0 0 Z " fill="#1B9595" transform="translate(1322,823)"/>
<path d="M0 0 C2.4375 0.8125 2.4375 0.8125 5 2 C5.33 2.99 5.66 3.98 6 5 C5.01 6.485 5.01 6.485 4 8 C2.68 5.36 1.36 2.72 0 0 Z " fill="#17928F" transform="translate(1290,638)"/>
<path d="M0 0 C0 3.90838866 -1.50567876 5.11594107 -4 8 C-4.99 7.67 -5.98 7.34 -7 7 C-4.69 4.69 -2.38 2.38 0 0 Z " fill="#2B9C9A" transform="translate(912,1223)"/>
<path d="M0 0 C0.99 0.33 1.98 0.66 3 1 C-0.465 3.97 -0.465 3.97 -4 7 C-3.67 5.35 -3.34 3.7 -3 2 C-2.01 2 -1.02 2 0 2 C0 1.34 0 0.68 0 0 Z " fill="#CAF3F3" transform="translate(1007,1128)"/>
<path d="M0 0 C0 1.66666667 0 3.33333333 0 5 C-2.375 6.6875 -2.375 6.6875 -5 8 C-5.66 7.67 -6.32 7.34 -7 7 C-4.69 4.69 -2.38 2.38 0 0 Z " fill="#209394" transform="translate(1113,1027)"/>
<path d="M0 0 C0.33 0.99 0.66 1.98 1 3 C-0.32 4.32 -1.64 5.64 -3 7 C-3.99 6.67 -4.98 6.34 -6 6 C-4.02 4.02 -2.04 2.04 0 0 Z " fill="#229997" transform="translate(1076,1063)"/>
<path d="M0 0 C0.99 0.33 1.98 0.66 3 1 C0.16569547 4.2542015 -1.68607774 5.5206753 -6 6 C-4 4 -2 2 0 0 Z " fill="#169595" transform="translate(1132,1009)"/>
<path d="M0 0 C1.32 0 2.64 0 4 0 C6.25 3 6.25 3 8 6 C7.67 6.66 7.34 7.32 7 8 C5.83035398 6.8572081 4.66435444 5.71068285 3.5 4.5625 C2.8503125 3.92441406 2.200625 3.28632812 1.53125 2.62890625 C0 1 0 1 0 0 Z " fill="#E8FEFE" transform="translate(423,965)"/>
<path d="M0 0 C0.33 0.99 0.66 1.98 1 3 C-0.75 6.1875 -0.75 6.1875 -3 9 C-3.99 9 -4.98 9 -6 9 C-4.02 6.03 -2.04 3.06 0 0 Z " fill="#D0F5F5" transform="translate(412,481)"/>
<path d="M0 0 C0 0.99 0 1.98 0 3 C-2.5 5.1875 -2.5 5.1875 -5 7 C-5.66 6.67 -6.32 6.34 -7 6 C-4.69 4.02 -2.38 2.04 0 0 Z " fill="#2F9E9E" transform="translate(878,1257)"/>
<path d="M0 0 C0.33 0.66 0.66 1.32 1 2 C-0.32 3.65 -1.64 5.3 -3 7 C-3.99 6.67 -4.98 6.34 -6 6 C-4.02 4.02 -2.04 2.04 0 0 Z " fill="#33A1A0" transform="translate(1042,1096)"/>
<path d="M0 0 C0.99 0 1.98 0 3 0 C3 0.99 3 1.98 3 3 C1.35 3.66 -0.3 4.32 -2 5 C-1.125 1.125 -1.125 1.125 0 0 Z " fill="#189697" transform="translate(1120,1020)"/>
<path d="M0 0 C4.05606165 0.46800711 7.46588679 0.87953208 11 3 C3.49230769 3.36923077 3.49230769 3.36923077 1 1.5 C0.67 1.005 0.34 0.51 0 0 Z " fill="#DCFBFB" transform="translate(581,882)"/>
</svg>
