<svg width="171" height="40" viewBox="0 0 171 40" fill="none" xmlns="http://www.w3.org/2000/svg">
<g clip-path="url(#clip0_29_233)">
<path d="M30.85 25.5553V33.6542H27.6946V32.5863C27.6885 28.3538 27.6643 24.1213 27.6946 19.8888C27.7188 16.2826 29.5643 13.5567 32.6229 12.4797C36.0779 11.2665 40.0714 12.2377 42.1619 14.8032C44.1919 17.2961 44.4702 21.338 42.8033 24.1939C40.5978 27.9726 35.1551 28.9831 31.7486 26.2451C31.5307 26.0696 31.3069 25.9032 30.85 25.5493V25.5553ZM40.6704 19.8344C40.6553 16.9754 38.5224 14.8909 35.6664 14.9454C32.877 14.9968 30.8652 17.0571 30.847 19.8828C30.8289 22.7327 32.989 24.9049 35.7935 24.8565C38.6827 24.805 40.6855 22.7417 40.6734 19.8344H40.6704Z" fill="#1E2337"/>
<path d="M14.5302 23.168C16.409 19.5678 18.3059 15.9737 20.2118 12.3463H16.5983L15.6587 14.1433C14.2882 16.724 12.9782 19.3349 11.5684 21.8913C10.4823 23.8608 8.51577 24.6323 6.43129 24.0454C4.60095 23.531 3.26373 21.8217 3.20323 19.9248C3.13969 17.9583 4.40732 16.1643 6.29213 15.5532C8.28584 14.9057 10.3703 15.6772 11.5502 17.4954C11.7559 17.8131 11.9496 18.1338 12.2309 18.5876L13.8945 15.5175C13.747 15.1947 13.2489 14.5725 12.7513 14.0798C10.4339 12.0347 6.99704 11.5385 4.14411 12.9876C1.34565 14.4065 -0.327377 17.5317 0.0538194 20.6267C0.453168 23.8699 2.77362 26.4687 5.90488 27.1796C9.45968 27.9874 12.839 26.4082 14.5302 23.168Z" fill="#1E2337"/>
<path d="M46.2223 6H46.2193H46.1406V27.4256H49.3112V19.1845C49.4292 16.4526 51.2081 14.8341 53.7918 14.9521C56.2817 15.067 57.7732 16.616 57.8397 19.2904C57.8972 21.6563 57.8821 24.0282 57.8458 26.394V27.4256H61.0769V26.4848C61.0648 23.6651 61.1676 20.8334 60.9165 18.0319C60.614 14.6707 58.4145 12.5197 55.2621 12.0568C53.0475 11.73 51.1113 12.3321 49.2386 14.1715V6H46.2223Z" fill="#1E2337"/>
<path d="M138.602 16.4352C140.541 14.5595 144.268 14.5655 145.736 16.7831C146.112 17.2368 146.396 17.8656 146.491 18.1233H149.666C149.045 14.1964 145.445 11.8124 141.019 12.236C136.729 12.6444 133.87 15.9753 134.021 20.3893C134.167 24.6339 137.307 27.6411 141.794 27.8287C145.772 27.9951 149.245 25.4145 149.599 21.9746H146.491C146.359 22.2383 146.019 22.8591 145.711 23.2332C144.181 25.4478 140.535 25.4296 138.584 23.5327C136.705 21.7084 136.714 18.2595 138.602 16.4352Z" fill="#1E2337"/>
<path d="M89.5132 12.2033C85.0205 12.0459 82.1343 14.2272 81.7561 18.4597C81.7423 18.6149 81.7299 18.7702 81.7188 18.9256V27.3815H84.8057H84.836V19.3129C84.9328 16.708 86.4273 15.2044 88.8567 15.1167C91.3919 15.0259 93.0165 16.4267 93.2344 19.086V27.3422H93.3009H96.4019V18.9256C96.1992 14.7899 93.6095 12.3455 89.5132 12.2033Z" fill="#1E2337"/>
<path d="M124.869 12.2033C120.376 12.0459 117.49 14.2272 117.112 18.4597C117.098 18.6149 117.085 18.7702 117.074 18.9256V27.3815H120.161H120.192V19.3129C120.288 16.708 121.783 15.2044 124.212 15.1167C126.747 15.0259 128.372 16.4267 128.59 19.086V27.3422H128.656H131.757V18.9256C131.555 14.7899 128.965 12.3455 124.869 12.2033Z" fill="#1E2337"/>
<path d="M25.3313 27.3329H22.3906V6.03125H25.3313V27.3329Z" fill="#1E2337"/>
<path fill-rule="evenodd" clip-rule="evenodd" d="M114.795 20.1036C114.879 15.5444 111.464 12.2014 106.711 12.1953L106.708 12.1983C102.015 12.1923 98.6936 15.4083 98.6875 19.9705C98.6815 24.5297 102.003 27.8092 106.65 27.8365C111.285 27.8607 114.71 24.6114 114.795 20.1036ZM111.291 18.3002C110.675 16.3892 109.007 15.1418 106.814 15.1087C103.937 15.0664 101.84 17.1357 101.843 20.0159C101.847 22.1321 102.971 23.7911 104.725 24.5002C105.316 24.7397 105.979 24.8713 106.693 24.8759C109.534 24.894 111.525 22.9215 111.549 20.0595C111.554 19.4288 111.464 18.8383 111.291 18.3002Z" fill="#1E2337"/>
<path fill-rule="evenodd" clip-rule="evenodd" d="M155.474 21.1715C155.965 25.0561 161.059 25.8004 163.08 23.9488C163.341 23.7097 163.744 23.3056 163.95 23.0927H167.264C166.29 26.5839 162.012 28.5837 157.922 27.5883C153.653 26.5506 151.254 22.6328 152.177 18.2097C153.063 13.9712 157.163 11.4692 161.807 12.3344C165.894 13.0968 168.559 16.8755 167.9 21.1715H155.474ZM155.688 18.2842H164.503H164.506C163.802 16.0938 162.071 14.9896 159.723 15.1197C157.551 15.2407 156.099 16.354 155.688 18.2842Z" fill="#1E2337"/>
<path fill-rule="evenodd" clip-rule="evenodd" d="M76.3756 25.1984C74.391 27.4674 72.0433 28.1602 69.3325 27.6156C65.2876 26.8018 63.0368 23.604 63.3302 19.1264C63.5843 15.2449 66.6581 12.271 70.6698 12.0289C75.9339 11.7113 79.4282 14.9998 79.4433 20.2852V26.0273V27.416H76.3756V25.2014V25.1984ZM66.4551 19.8831C66.4611 22.8026 68.4549 24.763 71.4167 24.757H71.4137C74.2696 24.7509 76.2633 22.7935 76.2966 19.9618C76.3329 17.0786 74.2878 14.979 71.4197 14.9457C68.597 14.9124 66.4521 17.0453 66.4551 19.8831Z" fill="#1E2337"/>
<path d="M16.8954 21.0547L15.1289 24.3353L16.8954 27.332H20.3022L16.8954 21.0547Z" fill="#1E2337"/>
</g>
<defs>
<clipPath id="clip0_29_233">
<rect width="171" height="40" fill="white"/>
</clipPath>
</defs>
</svg>
