<svg width="163" height="40" viewBox="0 0 163 40" fill="none" xmlns="http://www.w3.org/2000/svg">
<g clip-path="url(#clip0_29_272)">
<mask id="mask0_29_272" style="mask-type:luminance" maskUnits="userSpaceOnUse" x="0" y="0" width="163" height="40">
<path d="M0 0H163V40H0V0Z" fill="white"/>
</mask>
<g mask="url(#mask0_29_272)">
<path d="M88.099 12.6621V18.0998H88.1505C89.0525 16.9144 90.3282 16.3345 92.0033 16.3345C92.7507 16.3345 93.4465 16.4505 94.1166 16.6953C94.7737 16.9401 95.3665 17.3009 95.8819 17.7906C96.3973 18.2802 96.7967 18.8859 97.0931 19.6203C97.3895 20.3548 97.5312 21.2053 97.5312 22.1588C97.5312 23.2412 97.3379 24.2462 96.9385 25.174C96.539 26.1018 95.9205 26.8491 95.083 27.4032C94.2454 27.9573 93.2017 28.2408 91.9518 28.2408C90.1478 28.2408 88.8721 27.6609 88.099 26.5141H88.0475V27.9315H84.6199V12.6621H88.099ZM74.9686 16.0124C81.6176 16.0124 81.0506 23.151 81.0506 23.151H71.9405C72.3142 24.5684 73.5383 25.509 75.2135 25.509C77.2494 25.509 78.3446 24.2849 78.3446 24.2849L80.2775 26.2564C79.2853 27.2486 77.9452 28.1506 75.1877 28.1506C70.9226 28.1506 68.6547 25.3286 68.6547 22.3392C68.6547 19.3497 70.3556 16.0124 74.9686 16.0124ZM157.797 15.9995C160.658 15.9995 162.474 17.0948 162.474 17.0948L161.302 19.6074C157.488 17.636 155.774 19.0276 155.774 19.7234C155.774 20.4192 156.457 20.4708 159.111 20.9604C161.766 21.4501 163.003 22.5582 163.003 24.3493C163.003 26.1404 161.469 28.1119 157.72 28.1119C153.97 28.1119 152.256 26.9135 152.256 26.9135L153.39 24.4138C156.328 26.2693 159.665 25.6765 159.665 24.5684C159.665 23.7308 158.557 23.5633 157.359 23.4216L156.843 23.3571C156.611 23.3314 156.392 23.3056 156.173 23.2669C154.653 23.0221 152.398 22.2103 152.398 19.878C152.398 17.5458 154.936 15.9995 157.797 15.9995ZM141.033 11.8632V21.0893L146.007 16.3087H150.066L145.13 21.0377L150.542 28.0861H146.509L142.811 23.2669L141.02 24.9807V28.0861H137.695V11.8632H141.033ZM129.114 15.9222C131.472 15.9222 133.533 17.0948 134.68 18.8601L131.871 20.5094C131.343 19.5044 130.312 18.8343 129.114 18.8343C127.387 18.8343 125.983 20.2646 125.983 22.017C125.983 23.7824 127.387 25.1998 129.114 25.1998C130.248 25.1998 131.24 24.5813 131.794 23.6535L134.616 25.2642C133.456 26.9651 131.433 28.099 129.114 28.099C125.519 28.099 122.606 25.3673 122.606 22.0042C122.606 18.6539 125.519 15.9222 129.114 15.9222ZM113.664 15.9222C117.259 15.9222 120.171 18.6539 120.171 22.017C120.171 25.3802 117.259 28.1119 113.664 28.1119C110.069 28.1119 107.157 25.3802 107.157 22.017C107.144 18.6539 110.069 15.9222 113.664 15.9222ZM54.5579 16.2701V27.9959H50.95V16.2701H54.5579ZM47.7028 12.7137V15.6516H39.6236V19.543H46.7622V22.4423H39.6236V27.9959H36.0156V12.7137H47.7028ZM62.2635 17.7262C62.2635 17.7262 63.5392 15.7289 66.1807 16.0382V19.3111C66.1807 19.3111 63.3072 18.5766 62.2635 21.5403V27.9959H58.823V16.2701H62.1089L62.2635 17.6488V17.7262ZM103.703 11.8117V27.9186H100.07V11.8117H103.703ZM90.9467 18.8987C88.9494 18.8987 87.9573 20.11 87.9573 22.5454C87.9573 23.4602 88.215 24.2334 88.7304 24.8647C89.2458 25.4833 90.019 25.8054 91.0498 25.8054C91.7456 25.8054 92.2997 25.625 92.7378 25.2642C93.163 24.9034 93.4723 24.4653 93.6527 23.937C93.8331 23.4216 93.9233 22.8933 93.9233 22.3778C93.9233 21.3857 93.6913 20.5481 93.2146 19.8909C92.7378 19.2338 91.9775 18.8987 90.9467 18.8987ZM113.664 18.8343C111.937 18.8343 110.533 20.2646 110.533 22.017C110.533 23.7824 111.937 25.1998 113.664 25.1998C115.391 25.1998 116.795 23.7695 116.795 22.017C116.782 20.2517 115.391 18.8343 113.664 18.8343ZM75.0202 18.5637C73.2549 18.5637 72.2884 19.6461 71.9534 21.0635H77.855C77.8292 20.6898 77.2365 18.5637 75.0202 18.5637ZM52.754 10.7422C53.9265 10.7422 54.8801 11.6184 54.8801 12.6879C54.8801 13.7574 53.9265 14.6336 52.754 14.6336C51.5814 14.6336 50.6278 13.7574 50.6278 12.6879C50.6278 11.6055 51.5814 10.7422 52.754 10.7422Z" fill="#1E2337"/>
<path d="M23.9413 8C24.4825 8 24.9206 8.43811 24.9206 8.9793V31.6321C24.9206 32.1733 24.4825 32.6114 23.9413 32.6114H0.979302C0.438109 32.6114 0 32.1733 0 31.6321V8.99218C0 8.45099 0.438109 8.01289 0.979302 8.01289H23.9413V8ZM12.4603 14.8422L5.5279 25.7821H19.3799L12.4603 14.8422Z" fill="#1E2337"/>
</g>
</g>
<defs>
<clipPath id="clip0_29_272">
<rect width="163" height="40" fill="white"/>
</clipPath>
</defs>
</svg>
