<svg width="92" height="40" viewBox="0 0 92 40" fill="none" xmlns="http://www.w3.org/2000/svg">
<mask id="mask0_29_283" style="mask-type:luminance" maskUnits="userSpaceOnUse" x="0" y="6" width="92" height="28">
<path d="M0 6.51562H92V33.4811H0V6.51562Z" fill="white"/>
</mask>
<g mask="url(#mask0_29_283)">
<mask id="mask1_29_283" style="mask-type:luminance" maskUnits="userSpaceOnUse" x="0" y="6" width="92" height="28">
<path d="M92 6.51562H0V33.4811H92V6.51562Z" fill="white"/>
</mask>
<g mask="url(#mask1_29_283)">
<path d="M46.0287 19.8516H52.7899V20.4797C51.1878 20.7232 50.6287 20.9675 50.6287 23.1636V30.204C48.33 31.6704 45.6533 32.4342 42.9269 32.4017C35.2996 32.4017 30.4141 27.3488 30.4141 20.2037C30.4141 12.8834 35.9912 7.62115 43.7628 7.62115C47.005 7.62115 49.5144 8.28419 51.6748 9.3636V13.268H51.0125C49.8625 10.1289 47.4579 8.6617 43.6581 8.6617C36.8969 8.6617 32.1525 13.437 32.1525 20.0586C32.1525 26.9261 36.8239 31.3524 43.2703 31.3524C45.3609 31.3524 47.3127 30.9328 49.0552 30.0596V23.1993C49.0552 20.9675 48.5682 20.7232 46.0239 20.4837L46.0287 19.8516ZM54.7758 30.0295V25.9173H55.4381C56.8323 29.9922 59.4115 31.3548 62.3103 31.3548C65.1322 31.3548 68.1277 29.5774 68.1277 26.3003C68.1277 24.1748 66.8722 22.9542 64.0155 21.6289L60.46 19.9912C57.4621 18.5977 55.6141 16.6808 55.6141 13.7859C55.6141 10.4755 58.3686 7.61719 62.9345 7.61719C65.3392 7.61719 67.847 8.38412 69.3824 9.32474V13.1951H68.7194C67.6051 9.70543 65.2297 8.67043 62.76 8.67043C59.4139 8.67043 57.148 10.6928 57.148 13.621C57.148 16.0955 58.7175 17.4192 61.1214 18.4994L64.7118 20.1371C67.9183 21.602 69.6608 23.2746 69.6608 26.0283C69.6608 29.7218 66.3853 32.4056 62.1628 32.4056C59.512 32.4091 56.9274 31.5778 54.7758 30.0295ZM91.9993 32.0162V32.1209H89.873L77.9884 19.7485H76.1063V28.3219C76.1063 31.1803 76.6234 31.3548 78.3032 31.4928V32.1209H72.3415V31.4928C74.0847 31.3548 74.5392 31.1803 74.5392 28.3219V11.9063C74.5392 9.29143 74.1513 8.73388 72.3423 8.5245V7.89795H79.8688C85.0637 7.89795 88.3749 10.1289 88.3749 13.7154C88.3749 17.2367 85.2024 19.6414 80.1837 19.8159L91.9993 32.0162ZM76.1055 18.7016H79.5563C84.1222 18.7016 86.6665 16.8917 86.6665 13.751C86.6665 10.7198 84.1571 8.94246 79.592 8.94246H76.1008L76.1055 18.7016Z" fill="#1E2337"/>
<path d="M13.4447 15.8308V6.97656H12.4493V15.8308C12.7798 15.7894 13.1142 15.7894 13.4447 15.8308ZM6.33452 8.77373L5.497 9.31146L10.2794 16.7587C10.5365 16.5469 10.8179 16.3664 11.1177 16.221L6.33452 8.77373ZM1.32131 14.1319L0.90731 15.0369L8.95969 18.7145C9.06121 18.3973 9.2 18.0935 9.37369 17.8104L1.32131 14.1319ZM0 21.3508L0.142759 22.3358L8.90417 21.0748C8.81915 20.7532 8.77204 20.423 8.76379 20.0905L0 21.3508ZM9.48076 22.3398L2.79172 28.1366L3.4381 28.8876L10.1295 23.0908C9.88469 22.8666 9.66722 22.6142 9.48155 22.339L9.48076 22.3398ZM8.809 32.3376L9.7631 32.6184L12.2582 24.1243C11.9295 24.0696 11.6087 23.9756 11.3025 23.8443L8.809 32.3376ZM16.1412 32.6184L17.0969 32.3376L14.6082 23.8443C14.3019 23.9751 13.9811 24.0689 13.6525 24.1235L16.1412 32.6184ZM15.7717 23.0916L22.4615 28.89L23.1142 28.1374L16.418 22.3398C16.2333 22.6153 16.0163 22.8677 15.7717 23.0916ZM17.001 21.0756L25.7632 22.3358L25.9059 21.3508L17.1406 20.0897C17.1326 20.4228 17.0866 20.7536 17.001 21.0756ZM24.9978 15.0369L24.5846 14.1319L16.5314 17.8096C16.7059 18.0935 16.8447 18.3973 16.9454 18.7145L24.9978 15.0369ZM20.4073 9.31067L19.5698 8.77373L14.7866 16.221C15.0861 16.3664 15.3673 16.5469 15.6241 16.7587L20.4073 9.31067ZM8.809 7.64515L9.76469 7.36518L11.4048 12.9518L10.4491 13.2326L8.809 7.64515ZM14.5011 12.9502L16.1404 7.3636L17.0961 7.64356L15.456 13.2302L14.5011 12.9502ZM2.79093 11.8438L3.44286 11.092L7.84459 14.9068L7.19345 15.6587L2.79093 11.8438ZM0 18.6304L0.141172 17.6454L5.90545 18.4742L5.76348 19.4592L0 18.6304ZM0.984241 24.9451L6.28455 22.4992L6.70252 23.4049L1.40221 25.8508L0.984241 24.9451ZM5.49859 30.6713L8.64721 25.7723L9.48472 26.31L6.3361 31.2098L5.49859 30.6713ZM12.4541 27.1825H13.4494V33.0046H12.4541V27.1825ZM16.4196 26.3077L17.2579 25.7684L20.4066 30.6681L19.569 31.2075L16.4196 26.3077ZM19.2883 23.4319L19.7023 22.5269L24.9994 24.9459L24.5862 25.8524L19.2883 23.4319ZM19.9981 18.4758L25.7624 17.647L25.9043 18.632L20.1401 19.4608L19.9981 18.4758ZM18.059 14.9076L22.4623 11.092L23.1134 11.8446L18.7117 15.6595L18.059 14.9076Z" fill="#1E2337"/>
</g>
</g>
</svg>
