<svg width="103" height="40" viewBox="0 0 103 40" fill="none" xmlns="http://www.w3.org/2000/svg">
<path fill-rule="evenodd" clip-rule="evenodd" d="M39.8266 4.02283C40.3546 4.02283 40.8825 4.02283 41.4105 4.02283C43.3261 4.20394 45.0342 4.90269 46.5346 6.11908C45.9314 7.03166 45.2947 7.91675 44.6247 8.77433C43.3829 7.88923 42.001 7.36129 40.4788 7.19049C39.6251 7.15884 38.9884 7.50045 38.5689 8.21533C38.3963 8.97262 38.6603 9.5161 39.3608 9.84574C40.8417 10.3403 42.3323 10.8061 43.8328 11.2433C46.7455 12.4896 47.6616 14.6169 46.5812 17.6252C45.9322 18.9518 44.8918 19.8058 43.4601 20.1873C40.6879 20.8315 38.0792 20.4277 35.6341 18.9761C35.1564 18.6689 34.7217 18.3118 34.3298 17.9047C34.9849 17.0287 35.6837 16.1902 36.426 15.3892C37.7925 16.5533 39.3764 17.2055 41.1775 17.3457C41.7497 17.31 42.2932 17.1703 42.808 16.9264C43.5349 16.2819 43.5969 15.5987 42.9943 14.8768C42.6476 14.6413 42.275 14.455 41.8763 14.3178C40.8908 14.0093 39.8971 13.7298 38.895 13.4793C35.3573 12.4758 34.1927 10.2242 35.4012 6.72466C35.9607 5.69948 36.7836 4.96968 37.8701 4.53524C38.5167 4.29791 39.1689 4.12711 39.8266 4.02283Z" fill="#1E2337"/>
<path fill-rule="evenodd" clip-rule="evenodd" d="M23.9916 4.11542C25.1326 4.08543 26.2661 4.11649 27.3922 4.20858C29.6437 9.51908 31.8952 14.8295 34.1467 20.14C32.9057 20.2487 31.6635 20.2642 30.4201 20.1866C29.9082 19.0388 29.4424 17.8742 29.0226 16.6929C26.7857 16.6618 24.5497 16.6929 22.3146 16.786C21.8487 17.904 21.3829 19.022 20.9171 20.14C19.676 20.2487 18.4338 20.2642 17.1904 20.1866C19.4969 14.8441 21.764 9.48705 23.9916 4.11542ZM25.5754 8.68058C25.7416 8.78062 25.8503 8.9359 25.9015 9.14642C26.5043 10.5983 27.0788 12.0579 27.6251 13.5252C26.2893 13.5408 24.9539 13.5252 23.6189 13.4786C24.2843 11.884 24.9365 10.2846 25.5754 8.68058Z" fill="#1E2337"/>
<path d="M4.45883 4.82533L0 4V20.8013L4.45883 19.9171V4.82533Z" fill="#1E2337"/>
<path d="M11.5576 4.82533V19.9171L15.9604 20.8013V4L11.5576 4.82533Z" fill="#1E2337"/>
<path d="M5.78027 14.6113V9.9541H10.2607V14.6113H5.78027Z" fill="#1E2337"/>
<path fill-rule="evenodd" clip-rule="evenodd" d="M48.9573 4.30798C50.1374 4.30798 51.3175 4.30798 52.4976 4.30798C52.4976 6.38869 52.4976 8.46942 52.4976 10.5502C54.6094 10.5502 56.7211 10.5502 58.8329 10.5502C58.8329 8.46942 58.8329 6.38869 58.8329 4.30798C60.0441 4.30798 61.2553 4.30798 62.4664 4.30798C62.4664 9.61847 62.4664 14.929 62.4664 20.2395C61.2553 20.2395 60.0441 20.2395 58.8329 20.2395C58.8329 18.1277 58.8329 16.016 58.8329 13.9042C56.7211 13.9042 54.6094 13.9042 52.4976 13.9042C52.4976 16.016 52.4976 18.1277 52.4976 20.2395C51.3175 20.2395 50.1374 20.2395 48.9573 20.2395C48.9573 14.929 48.9573 9.61847 48.9573 4.30798Z" fill="#1E2337"/>
<path fill-rule="evenodd" clip-rule="evenodd" d="M68.1542 4.30709C69.8625 4.29157 71.5707 4.3071 73.2784 4.35367C70.8082 6.83941 68.3238 9.30832 65.8251 11.7604C64.9556 10.9529 64.1171 10.1144 63.3096 9.24492C64.9265 7.59704 66.5413 5.9511 68.1542 4.30709Z" fill="#1E2337"/>
<path fill-rule="evenodd" clip-rule="evenodd" d="M74.4846 4.30798C78.5218 4.30798 82.5591 4.30798 86.5963 4.30798C86.5963 5.36386 86.5963 6.41976 86.5963 7.47564C83.7392 7.47564 80.8821 7.47564 78.025 7.47564C78.025 8.53153 78.025 9.58742 78.025 10.6433C80.5405 10.6433 83.056 10.6433 85.5715 10.6433C85.5715 11.6992 85.5715 12.7551 85.5715 13.811C83.056 13.811 80.5405 13.811 78.025 13.811C78.025 14.898 78.025 15.9849 78.025 17.0718C80.9131 17.0718 83.8013 17.0718 86.6895 17.0718C86.6895 18.1277 86.6895 19.1837 86.6895 20.2395C82.6212 20.2395 78.5529 20.2395 74.4846 20.2395C74.4846 14.929 74.4846 9.61847 74.4846 4.30798Z" fill="#1E2337"/>
<path fill-rule="evenodd" clip-rule="evenodd" d="M102.992 4.30709C102.992 4.33814 102.992 4.3692 102.992 4.40025C100.936 7.54607 98.9025 10.7137 96.8892 13.9032C96.8426 16.0147 96.8268 18.1265 96.8426 20.2385C95.6622 20.2385 94.4824 20.2385 93.3023 20.2385C93.3179 18.1576 93.3023 16.0769 93.2557 13.9964C91.2216 10.7821 89.1874 7.56792 87.1533 4.35367C88.5508 4.29156 89.9483 4.29156 91.3458 4.35367C92.6153 6.41111 93.873 8.4763 95.1191 10.5492C96.3647 8.4763 97.6224 6.41111 98.8923 4.35367C100.258 4.3071 101.625 4.29157 102.992 4.30709Z" fill="#1E2337"/>
<path fill-rule="evenodd" clip-rule="evenodd" d="M65.7319 12.8691C68.2551 15.2524 70.7395 17.6903 73.1852 20.1827C71.5082 20.2448 69.8312 20.2448 68.1542 20.1827C66.5394 18.5678 64.9244 16.9529 63.3096 15.338C64.1359 14.5273 64.9433 13.7044 65.7319 12.8691Z" fill="#1E2337"/>
<path d="M62.7479 28.4822L61.5552 29.6749C61.3141 29.3668 60.4736 28.8036 59.252 28.8036C57.7251 28.8036 56.6804 30.2125 56.6804 31.8587C56.6804 33.5049 58.0466 34.4492 59.252 34.4492C60.2164 34.4492 61.0736 34.1879 61.3817 33.9669V32.5406H59.252V31.1341H62.9287V34.831C62.48 35.2797 61.1165 35.9761 59.252 35.9761C56.9215 35.9761 54.9526 34.4492 54.9526 31.8587C54.9526 29.0447 56.7607 27.2365 59.252 27.2365C61.2451 27.2365 62.413 28.067 62.7479 28.4822Z" fill="#1E2337"/>
<path fill-rule="evenodd" clip-rule="evenodd" d="M90.9626 35.9017V27.5284H93.6378C94.4621 27.5284 95.3276 27.5971 95.9585 28.1277C96.5324 28.6104 97.038 29.3588 97.038 30.3616C97.038 31.7001 96.3972 32.5078 95.757 32.9434C95.2256 33.305 94.556 33.3371 93.9133 33.3371H92.5813V35.9017H90.9626ZM92.5637 28.9874V31.7173H94.1671C94.4852 31.6731 95.1929 31.3436 95.1929 30.3789C95.1929 29.4141 94.4852 29.0493 94.1671 28.9874H92.5637Z" fill="#1E2337"/>
<path d="M49.2231 27.8357L53.2461 31.8587L49.2231 35.8817V27.8357Z" fill="#1E2337"/>
<path fill-rule="evenodd" clip-rule="evenodd" d="M64.9023 35.9017V27.5284H67.5774C68.4017 27.5284 69.2672 27.5971 69.898 28.1277C70.4719 28.6104 70.9777 29.3588 70.9777 30.3616C70.9777 31.7655 70.0651 32.5494 69.6088 32.7659L71.3638 35.9017H69.6088L68.082 33.3371H66.521V35.9017H64.9023ZM66.5425 28.9874V31.7173H68.146C68.4641 31.6731 69.1717 31.3436 69.1717 30.3789C69.1717 29.4141 68.4641 29.0493 68.146 28.9874H66.5425Z" fill="#1E2337"/>
<path fill-rule="evenodd" clip-rule="evenodd" d="M76.6445 27.2469C78.0607 27.2469 80.9358 28.1995 80.9358 31.8385C80.9358 34.6599 78.3595 35.8299 76.9774 35.9999H76.2534C74.8553 35.8517 72.3318 34.9129 72.3318 31.8385C72.3318 28.1652 75.2284 27.2469 76.6445 27.2469ZM76.6407 28.8454C77.5434 28.8454 79.3762 29.4526 79.3762 31.7724C79.3762 33.7283 77.434 34.4669 76.6407 34.4669C75.8474 34.4669 73.8914 33.9335 73.8914 31.7724C73.8914 29.4308 75.7379 28.8454 76.6407 28.8454Z" fill="#1E2337"/>
<path d="M86.1443 36C88.4598 35.8007 89.1385 34.1509 89.1819 33.2783V27.5459H87.4406V33.2783C87.4406 33.6481 86.9382 34.4803 85.6685 34.4803C84.3987 34.4803 84.0505 33.6481 84.0505 33.2783V27.5459H82.2937V33.2783C82.2937 34.1509 82.8883 35.8007 85.1936 36H86.1443Z" fill="#1E2337"/>
</svg>
