<svg width="148" height="40" viewBox="0 0 148 40" fill="none" xmlns="http://www.w3.org/2000/svg">
<g clip-path="url(#clip0_29_298)">
<path fill-rule="evenodd" clip-rule="evenodd" d="M20.2453 8.12629C20.4843 7.64893 20.2912 7.06815 19.8138 6.8291C19.3364 6.59004 18.7557 6.78323 18.5166 7.26059C18.2775 7.73796 18.4707 8.31873 18.9481 8.55778C19.4255 8.79684 20.0062 8.60365 20.2453 8.12629ZM26.1889 7.01176C26.5664 7.38924 26.5664 8.00126 26.1889 8.37874C25.8114 8.75622 25.1994 8.75622 24.8219 8.37874C24.4444 8.00126 24.4444 7.38924 24.8219 7.01176C25.1994 6.63428 25.8114 6.63428 26.1889 7.01176ZM1.66156 7.01176C2.03905 7.38924 2.03905 8.00126 1.66156 8.37874C1.28408 8.75622 0.672065 8.75622 0.294584 8.37874C-0.0828968 8.00126 -0.0828968 7.38924 0.294584 7.01176C0.672065 6.63428 1.28408 6.63428 1.66156 7.01176ZM16.437 23.1503C16.7013 22.886 16.7013 22.4576 16.437 22.1934C16.1728 21.9291 15.7444 21.9291 15.4802 22.1934C15.2159 22.4576 15.2159 22.886 15.4802 23.1503C15.7444 23.4145 16.1728 23.4145 16.437 23.1503ZM17.4109 23.9365C17.4675 23.9931 17.4675 24.0849 17.4109 24.1415C17.3542 24.1981 17.2624 24.1981 17.2058 24.1415C17.1492 24.0849 17.1492 23.9931 17.2058 23.9365C17.2624 23.8799 17.3542 23.8799 17.4109 23.9365ZM18.3937 25.1098C18.4975 25.006 18.4975 24.8377 18.3937 24.7339C18.2899 24.63 18.1216 24.63 18.0178 24.7339C17.914 24.8377 17.914 25.006 18.0178 25.1098C18.1216 25.2136 18.2899 25.2136 18.3937 25.1098ZM19.5529 25.7095C19.7133 25.8699 19.7133 26.13 19.5529 26.2904C19.3924 26.4508 19.1323 26.4509 18.9719 26.2904C18.8115 26.13 18.8115 25.8699 18.9719 25.7095C19.1323 25.549 19.3924 25.549 19.5529 25.7095ZM20.9464 27.6508C21.1634 27.4337 21.1634 27.0818 20.9464 26.8647C20.7293 26.6477 20.3774 26.6477 20.1603 26.8647C19.9433 27.0818 19.9433 27.4337 20.1603 27.6508C20.3774 27.8678 20.7293 27.8678 20.9464 27.6508ZM22.4761 28.2324C22.7403 28.4967 22.7403 28.9251 22.4761 29.1893C22.2119 29.4536 21.7835 29.4536 21.5192 29.1893C21.255 28.9251 21.255 28.4967 21.5192 28.2324C21.7835 27.9682 22.2119 27.9682 22.4761 28.2324ZM24.2329 30.9715C24.5538 30.6507 24.5538 30.1305 24.2329 29.8096C23.912 29.4887 23.3918 29.4887 23.071 29.8096C22.7501 30.1305 22.7501 30.6507 23.071 30.9715C23.3918 31.2924 23.912 31.2924 24.2329 30.9715ZM26.1889 32.8944C26.5664 32.5169 26.5664 31.9049 26.1889 31.5274C25.8114 31.1499 25.1994 31.1499 24.8219 31.5274C24.4444 31.9049 24.4444 32.5169 24.8219 32.8944C25.1994 33.2718 25.8114 33.2718 26.1889 32.8944ZM3.38915 10.1122C3.71001 9.79129 3.71001 9.27108 3.38915 8.95022C3.06829 8.62936 2.54808 8.62936 2.22722 8.95022C1.90636 9.27108 1.90636 9.79129 2.22722 10.1122C2.54807 10.433 3.06829 10.433 3.38915 10.1122ZM4.92923 10.7012C5.19347 10.9654 5.19347 11.3938 4.92924 11.6581C4.665 11.9223 4.23658 11.9223 3.97235 11.6581C3.70811 11.3938 3.70811 10.9654 3.97235 10.7012C4.23659 10.4369 4.665 10.4369 4.92923 10.7012ZM6.32137 13.0414C6.53842 12.8243 6.53841 12.4724 6.32136 12.2554C6.10431 12.0383 5.7524 12.0383 5.53535 12.2554C5.3183 12.4724 5.3183 12.8243 5.53535 13.0414C5.7524 13.2584 6.10431 13.2584 6.32137 13.0414ZM7.47473 13.6157C7.63516 13.7761 7.63516 14.0362 7.47473 14.1967C7.3143 14.3571 7.0542 14.3571 6.89377 14.1967C6.73334 14.0362 6.73334 13.7761 6.89377 13.6157C7.05419 13.4553 7.3143 13.4553 7.47473 13.6157ZM8.46404 15.1645C8.56784 15.0607 8.56784 14.8923 8.46404 14.7885C8.36023 14.6847 8.19192 14.6847 8.08812 14.7885C7.98431 14.8923 7.98431 15.0607 8.08812 15.1645C8.19192 15.2683 8.36023 15.2683 8.46404 15.1645ZM9.24679 15.7646C9.30341 15.8212 9.30341 15.913 9.24679 15.9696C9.19017 16.0263 9.09837 16.0263 9.04174 15.9696C8.98512 15.913 8.98512 15.8212 9.04174 15.7646C9.09837 15.708 9.19017 15.708 9.24679 15.7646ZM10.9878 17.7206C11.2521 17.4563 11.2521 17.0279 10.9878 16.7637C10.7236 16.4994 10.2952 16.4994 10.0309 16.7637C9.76671 17.0279 9.7667 17.4563 10.0309 17.7206C10.2952 17.9848 10.7236 17.9848 10.9878 17.7206ZM1.66156 31.5274C2.03905 31.9049 2.03905 32.5169 1.66156 32.8944C1.28408 33.2718 0.672065 33.2718 0.294584 32.8944C-0.0828968 32.5169 -0.0828968 31.9049 0.294584 31.5274C0.672065 31.1499 1.28408 31.1499 1.66156 31.5274ZM3.38525 30.9403C3.70611 30.6194 3.70611 30.0992 3.38525 29.7783C3.06439 29.4575 2.54417 29.4575 2.22331 29.7783C1.90245 30.0992 1.90246 30.6194 2.22331 30.9403C2.54417 31.2611 3.06439 31.2611 3.38525 30.9403ZM4.93705 28.2402C5.20128 28.5045 5.20129 28.9329 4.93705 29.1971C4.67281 29.4614 4.2444 29.4614 3.98016 29.1971C3.71592 28.9329 3.71593 28.5045 3.98016 28.2402C4.2444 27.976 4.67281 27.976 4.93705 28.2402ZM6.32137 27.6508C6.53842 27.4337 6.53841 27.0818 6.32136 26.8647C6.10431 26.6477 5.7524 26.6477 5.53535 26.8647C5.3183 27.0818 5.3183 27.4337 5.53535 27.6508C5.7524 27.8678 6.10431 27.8678 6.32137 27.6508ZM7.47083 25.7095C7.63126 25.8699 7.63125 26.13 7.47082 26.2904C7.31039 26.4508 7.05029 26.4509 6.88986 26.2904C6.72943 26.13 6.72943 25.8699 6.88986 25.7095C7.05029 25.549 7.3104 25.549 7.47083 25.7095ZM8.46013 25.102C8.56393 24.9981 8.56394 24.8298 8.46013 24.726C8.35632 24.6222 8.18802 24.6222 8.08421 24.726C7.9804 24.8298 7.9804 24.9982 8.08421 25.102C8.18802 25.2058 8.35632 25.2058 8.46013 25.102ZM9.2546 23.9521C9.31123 24.0087 9.31123 24.1005 9.2546 24.1571C9.19798 24.2138 9.10618 24.2138 9.04956 24.1571C8.99293 24.1005 8.99293 24.0087 9.04956 23.9521C9.10618 23.8955 9.19798 23.8955 9.2546 23.9521ZM10.9761 23.1581C11.2403 22.8938 11.2403 22.4654 10.9761 22.2012C10.7119 21.9369 10.2835 21.9369 10.0192 22.2012C9.75499 22.4654 9.75499 22.8938 10.0192 23.1581C10.2835 23.4223 10.7119 23.4223 10.9761 23.1581ZM24.2251 10.12C24.5459 9.7991 24.5459 9.27889 24.2251 8.95803C23.9042 8.63717 23.384 8.63717 23.0632 8.95803C22.7423 9.27889 22.7423 9.79911 23.0632 10.12C23.384 10.4408 23.9042 10.4408 24.2251 10.12ZM22.4722 10.6856C22.7364 10.9498 22.7364 11.3782 22.4722 11.6424C22.208 11.9067 21.7796 11.9067 21.5153 11.6424C21.2511 11.3782 21.2511 10.9498 21.5153 10.6856C21.7796 10.4213 22.208 10.4213 22.4722 10.6856ZM20.9464 13.0414C21.1634 12.8243 21.1634 12.4724 20.9464 12.2554C20.7293 12.0383 20.3774 12.0383 20.1603 12.2554C19.9433 12.4724 19.9433 12.8243 20.1603 13.0414C20.3774 13.2584 20.7293 13.2584 20.9464 13.0414ZM19.5568 13.6157C19.7172 13.7761 19.7172 14.0362 19.5568 14.1967C19.3963 14.3571 19.1362 14.3571 18.9758 14.1967C18.8154 14.0362 18.8154 13.7761 18.9758 13.6157C19.1362 13.4553 19.3963 13.4553 19.5568 13.6157ZM18.4015 15.1723C18.5053 15.0685 18.5053 14.9002 18.4015 14.7964C18.2977 14.6925 18.1294 14.6925 18.0256 14.7964C17.9218 14.9002 17.9218 15.0685 18.0256 15.1723C18.1294 15.2761 18.2977 15.2761 18.4015 15.1723ZM17.4148 15.7724C17.4714 15.829 17.4714 15.9208 17.4148 15.9775C17.3581 16.0341 17.2663 16.0341 17.2097 15.9775C17.1531 15.9208 17.1531 15.829 17.2097 15.7724C17.2663 15.7158 17.3581 15.7158 17.4148 15.7724ZM16.4292 17.6893C16.6935 17.4251 16.6935 16.9967 16.4292 16.7324C16.165 16.4682 15.7366 16.4682 15.4723 16.7324C15.2081 16.9967 15.2081 17.4251 15.4723 17.6893C15.7366 17.9536 16.165 17.9536 16.4292 17.6893ZM11.1753 19.95C11.1753 20.3237 10.8723 20.6266 10.4987 20.6266C10.125 20.6266 9.82203 20.3237 9.82203 19.95C9.82203 19.5763 10.125 19.2734 10.4987 19.2734C10.8723 19.2734 11.1753 19.5763 11.1753 19.95ZM15.9557 20.6266C16.3294 20.6266 16.6323 20.3237 16.6323 19.95C16.6323 19.5763 16.3294 19.2734 15.9557 19.2734C15.582 19.2734 15.2791 19.5763 15.2791 19.95C15.2791 20.3237 15.582 20.6266 15.9557 20.6266ZM1.94275 19.9431C1.94275 20.477 1.50999 20.9097 0.976142 20.9097C0.442298 20.9097 0.00953173 20.477 0.00953173 19.9431C0.00953173 19.4093 0.442298 18.9765 0.976142 18.9765C1.50999 18.9765 1.94275 19.4093 1.94275 19.9431ZM4.20946 20.5184C4.53032 20.1975 4.53032 19.6773 4.20946 19.3565C3.8886 19.0356 3.36839 19.0356 3.04753 19.3565C2.72667 19.6773 2.72667 20.1975 3.04753 20.5184C3.36839 20.8393 3.8886 20.8393 4.20946 20.5184ZM6.48002 19.4746C6.74426 19.7389 6.74426 20.1673 6.48002 20.4315C6.21578 20.6957 5.78737 20.6957 5.52313 20.4315C5.2589 20.1673 5.25889 19.7389 5.52313 19.4746C5.78737 19.2104 6.21578 19.2104 6.48002 19.4746ZM8.51277 20.3304C8.72982 20.1134 8.72983 19.7615 8.51277 19.5444C8.29572 19.3274 7.94381 19.3274 7.72676 19.5444C7.50971 19.7615 7.50971 20.1134 7.72676 20.3304C7.94381 20.5475 8.29572 20.5475 8.51277 20.3304ZM26.4662 19.9431C26.4662 20.477 26.0334 20.9097 25.4996 20.9097C24.9657 20.9097 24.533 20.477 24.533 19.9431C24.533 19.4093 24.9657 18.9765 25.4996 18.9765C26.0334 18.9765 26.4662 19.4093 26.4662 19.9431ZM23.4243 20.5184C23.7452 20.1975 23.7452 19.6773 23.4243 19.3565C23.1034 19.0356 22.5832 19.0356 22.2624 19.3565C21.9415 19.6773 21.9415 20.1975 22.2624 20.5184C22.5832 20.8393 23.1034 20.8393 23.4243 20.5184ZM20.9253 19.4668C21.1896 19.731 21.1896 20.1595 20.9253 20.4237C20.6611 20.6879 20.2327 20.6879 19.9684 20.4237C19.7042 20.1595 19.7042 19.731 19.9684 19.4668C20.2327 19.2026 20.6611 19.2026 20.9253 19.4668ZM18.7393 20.3304C18.9564 20.1134 18.9564 19.7615 18.7393 19.5444C18.5223 19.3274 18.1704 19.3274 17.9533 19.5444C17.7363 19.7615 17.7363 20.1134 17.9533 20.3304C18.1704 20.5475 18.5223 20.5475 18.7393 20.3304ZM13.9058 22.6766C13.9058 23.0503 13.6028 23.3532 13.2291 23.3532C12.8554 23.3532 12.5525 23.0503 12.5525 22.6766C12.5525 22.3029 12.8554 21.9999 13.2291 21.9999C13.6028 21.9999 13.9058 22.3029 13.9058 22.6766ZM13.2291 17.9001C13.6028 17.9001 13.9058 17.5971 13.9058 17.2234C13.9058 16.8497 13.6028 16.5468 13.2291 16.5468C12.8554 16.5468 12.5525 16.8497 12.5525 17.2234C12.5525 17.5971 12.8554 17.9001 13.2291 17.9001ZM14.1967 32.2244C14.1967 32.7582 13.7639 33.191 13.23 33.191C12.6962 33.191 12.2634 32.7582 12.2634 32.2244C12.2634 31.6905 12.6962 31.2577 13.23 31.2577C13.7639 31.2577 14.1967 31.6905 14.1967 32.2244ZM13.8149 30.1434C14.1358 29.8225 14.1358 29.3023 13.8149 28.9815C13.4941 28.6606 12.9739 28.6606 12.653 28.9815C12.3321 29.3023 12.3321 29.8225 12.653 30.1434C12.9739 30.4643 13.4941 30.4643 13.8149 30.1434ZM13.7027 26.6934C13.9669 26.9576 13.9669 27.386 13.7027 27.6503C13.4384 27.9145 13.01 27.9145 12.7458 27.6503C12.4815 27.386 12.4816 26.9576 12.7458 26.6934C13.01 26.4291 13.4384 26.4291 13.7027 26.6934ZM13.6261 25.4554C13.8431 25.2384 13.8431 24.8865 13.626 24.6694C13.409 24.4524 13.0571 24.4524 12.84 24.6694C12.623 24.8865 12.623 25.2384 12.84 25.4554C13.0571 25.6725 13.409 25.6725 13.6261 25.4554ZM14.1967 7.70092C14.1967 8.23477 13.7639 8.66753 13.23 8.66753C12.6962 8.66753 12.2634 8.23477 12.2634 7.70092C12.2634 7.16708 12.6962 6.73431 13.23 6.73431C13.7639 6.73431 14.1967 7.16708 14.1967 7.70092ZM13.8149 10.9403C14.1358 10.6194 14.1358 10.0992 13.8149 9.77834C13.4941 9.45749 12.9739 9.45749 12.653 9.77834C12.3321 10.0992 12.3321 10.6194 12.653 10.9403C12.9739 11.2611 13.4941 11.2611 13.8149 10.9403ZM13.7027 12.2481C13.9669 12.5123 13.9669 12.9407 13.7027 13.2049C13.4384 13.4692 13.01 13.4692 12.7458 13.2049C12.4816 12.9407 12.4816 12.5123 12.7458 12.2481C13.01 11.9838 13.4384 11.9838 13.7027 12.2481ZM13.626 15.2445C13.8431 15.0274 13.8431 14.6755 13.626 14.4585C13.409 14.2414 13.0571 14.2414 12.84 14.4585C12.623 14.6755 12.623 15.0275 12.84 15.2445C13.0571 15.4616 13.409 15.4616 13.626 15.2445ZM7.96403 7.26421C8.20309 7.74157 8.0099 8.32234 7.53254 8.5614C7.05518 8.80045 6.4744 8.60727 6.23535 8.1299C5.99629 7.65254 6.18948 7.07177 6.66684 6.83271C7.14421 6.59366 7.72498 6.78684 7.96403 7.26421ZM9.11034 10.2536C9.25518 9.82359 9.02399 9.35756 8.59395 9.21271C8.16391 9.06787 7.69788 9.29907 7.55304 9.7291C7.4082 10.1591 7.63939 10.6252 8.06943 10.77C8.49946 10.9149 8.96549 10.6837 9.11034 10.2536ZM9.48102 11.3356C9.83561 11.4536 10.0275 11.8366 9.90952 12.1912C9.79159 12.5458 9.40853 12.7377 9.05393 12.6197C8.69934 12.5018 8.50748 12.1187 8.62542 11.7641C8.74336 11.4095 9.12642 11.2177 9.48102 11.3356ZM10.689 13.9405C10.7858 13.6493 10.6283 13.3346 10.337 13.2377C10.0457 13.1409 9.73104 13.2984 9.63416 13.5897C9.53728 13.881 9.69488 14.1957 9.98615 14.2925C10.2774 14.3894 10.5921 14.2318 10.689 13.9405ZM11.0376 14.9281C11.2528 14.9997 11.3693 15.2323 11.2977 15.4475C11.2261 15.6628 10.9935 15.7793 10.7783 15.7077C10.563 15.6361 10.4465 15.4035 10.5181 15.1882C10.5897 14.973 10.8223 14.8565 11.0376 14.9281ZM19.0117 9.71409C19.1549 10.1447 18.9219 10.6098 18.4914 10.753C18.0608 10.8962 17.5956 10.6633 17.4524 10.2327C17.3092 9.80211 17.5422 9.33697 17.9728 9.19376C18.4033 9.05055 18.8685 9.28351 19.0117 9.71409ZM17.528 12.5274C17.8822 12.4081 18.0726 12.0243 17.9533 11.6702C17.834 11.316 17.4502 11.1256 17.0961 11.2449C16.7419 11.3642 16.5515 11.748 16.6708 12.1021C16.7901 12.4563 17.1739 12.6467 17.528 12.5274ZM16.8491 13.614C16.946 13.9053 16.7884 14.2199 16.4971 14.3168C16.2059 14.4137 15.8912 14.2561 15.7943 13.9648C15.6974 13.6736 15.855 13.3589 16.1463 13.262C16.4376 13.1651 16.7522 13.3227 16.8491 13.614ZM15.6782 15.7202C15.8935 15.6486 16.01 15.4161 15.9383 15.2008C15.8667 14.9855 15.6342 14.869 15.4189 14.9406C15.2036 15.0122 15.0871 15.2448 15.1587 15.4601C15.2303 15.6754 15.4629 15.7918 15.6782 15.7202ZM7.53645 31.3682C8.01381 31.6072 8.207 32.188 7.96794 32.6654C7.72889 33.1427 7.14811 33.3359 6.67075 33.0968C6.19339 32.8578 6.0002 32.277 6.23925 31.7997C6.47831 31.3223 7.05908 31.1291 7.53645 31.3682ZM8.47965 30.7374C8.91022 30.5942 9.14319 30.129 8.99998 29.6985C8.85677 29.2679 8.39162 29.0349 7.96104 29.1781C7.53046 29.3213 7.2975 29.7865 7.44071 30.2171C7.58392 30.6476 8.04907 30.8806 8.47965 30.7374ZM9.90562 27.7149C10.0236 28.0695 9.8317 28.4526 9.47711 28.5705C9.12251 28.6884 8.73945 28.4966 8.62151 28.142C8.50358 27.7874 8.69543 27.4043 9.05002 27.2864C9.40462 27.1685 9.78768 27.3603 9.90562 27.7149ZM10.3292 26.6528C10.6204 26.5559 10.778 26.2412 10.6811 25.95C10.5843 25.6587 10.2696 25.5011 9.97834 25.598C9.68706 25.6948 9.52947 26.0095 9.62635 26.3008C9.72323 26.5921 10.0379 26.7496 10.3292 26.6528ZM11.3173 24.4664C11.3889 24.6817 11.2724 24.9143 11.0571 24.9859C10.8418 25.0575 10.6092 24.941 10.5376 24.7257C10.466 24.5104 10.5825 24.2778 10.7978 24.2062C11.0131 24.1346 11.2456 24.2511 11.3173 24.4664ZM19.806 33.0926C20.2833 32.8536 20.4765 32.2728 20.2375 31.7955C19.9984 31.3181 19.4176 31.1249 18.9403 31.364C18.4629 31.603 18.2697 32.1838 18.5088 32.6612C18.7478 33.1385 19.3286 33.3317 19.806 33.0926ZM18.4992 29.1609C18.9298 29.3041 19.1627 29.7693 19.0195 30.1998C18.8763 30.6304 18.4112 30.8634 17.9806 30.7202C17.55 30.577 17.317 30.1118 17.4602 29.6812C17.6034 29.2507 18.0686 29.0177 18.4992 29.1609ZM17.8666 28.1209C17.9845 27.7663 17.7926 27.3833 17.438 27.2653C17.0835 27.1474 16.7004 27.3392 16.5824 27.6938C16.4645 28.0484 16.6564 28.4315 17.011 28.5494C17.3656 28.6674 17.7486 28.4755 17.8666 28.1209ZM16.5049 25.6049C16.7962 25.7018 16.9538 26.0165 16.8569 26.3077C16.7601 26.599 16.4454 26.7566 16.1541 26.6597C15.8628 26.5628 15.7053 26.2482 15.8021 25.9569C15.899 25.6656 16.2137 25.508 16.5049 25.6049ZM15.9383 24.721C16.01 24.5057 15.8935 24.2731 15.6782 24.2015C15.4629 24.1299 15.2303 24.2464 15.1587 24.4617C15.0871 24.677 15.2036 24.9095 15.4189 24.9811C15.6342 25.0528 15.8667 24.9363 15.9383 24.721ZM1.84294 25.6548C2.082 26.1322 1.88881 26.713 1.41145 26.952C0.934082 27.1911 0.35331 26.9979 0.114255 26.5205C-0.124801 26.0432 0.0683863 25.4624 0.54575 25.2233C1.02311 24.9843 1.60389 25.1775 1.84294 25.6548ZM4.12987 25.3239C4.27472 24.8939 4.04352 24.4279 3.61348 24.283C3.18345 24.1382 2.71742 24.3694 2.57257 24.7994C2.42773 25.2294 2.65892 25.6955 3.08896 25.8403C3.519 25.9852 3.98503 25.754 4.12987 25.3239ZM5.49274 23.2809C5.84733 23.3989 6.03918 23.7819 5.92124 24.1365C5.80331 24.4911 5.42024 24.683 5.06565 24.565C4.71105 24.4471 4.5192 24.064 4.63714 23.7094C4.75507 23.3549 5.13814 23.163 5.49274 23.2809ZM7.5913 23.1984C7.68818 22.9071 7.53059 22.5924 7.23931 22.4955C6.94804 22.3987 6.63338 22.5563 6.5365 22.8475C6.43963 23.1388 6.59722 23.4535 6.88849 23.5503C7.17977 23.6472 7.49443 23.4896 7.5913 23.1984ZM8.73678 21.8578C8.95207 21.9294 9.06854 22.1619 8.99694 22.3772C8.92534 22.5925 8.69277 22.709 8.47748 22.6374C8.26219 22.5658 8.1457 22.3332 8.21731 22.1179C8.28891 21.9026 8.52149 21.7862 8.73678 21.8578ZM1.83122 14.2435C2.07028 13.7661 1.87709 13.1853 1.39973 12.9463C0.922364 12.7072 0.341591 12.9004 0.102536 13.3778C-0.13652 13.8551 0.0566674 14.4359 0.534031 14.675C1.01139 14.914 1.59217 14.7208 1.83122 14.2435ZM4.02732 14.7063C4.17053 15.1369 3.93757 15.602 3.50699 15.7452C3.07641 15.8884 2.61126 15.6555 2.46805 15.2249C2.32484 14.7943 2.5578 14.3292 2.98838 14.1859C3.41896 14.0427 3.88411 14.2757 4.02732 14.7063ZM5.49273 16.6252C5.84733 16.5072 6.03918 16.1242 5.92124 15.7696C5.80331 15.415 5.42024 15.2231 5.06565 15.3411C4.71105 15.459 4.5192 15.8421 4.63714 16.1967C4.75508 16.5513 5.13814 16.7431 5.49273 16.6252ZM7.59521 16.7078C7.69209 16.999 7.5345 17.3137 7.24322 17.4106C6.95195 17.5075 6.63729 17.3499 6.54041 17.0586C6.44353 16.7673 6.60112 16.4527 6.8924 16.3558C7.18367 16.2589 7.49833 16.4165 7.59521 16.7078ZM8.73678 18.0171C8.95207 17.9455 9.06855 17.7129 8.99694 17.4976C8.92534 17.2824 8.69276 17.1659 8.47747 17.2375C8.26218 17.3091 8.1457 17.5417 8.21731 17.7569C8.28891 17.9722 8.52149 18.0887 8.73678 18.0171ZM25.9349 25.2197C26.4122 25.4588 26.6054 26.0396 26.3664 26.5169C26.1273 26.9943 25.5466 27.1875 25.0692 26.9484C24.5918 26.7094 24.3986 26.1286 24.6377 25.6512C24.8767 25.1739 25.4575 24.9807 25.9349 25.2197ZM23.4914 25.7296C23.9219 25.5864 24.1549 25.1212 24.0117 24.6907C23.8685 24.2601 23.4033 24.0271 22.9728 24.1703C22.5422 24.3135 22.3092 24.7787 22.4524 25.2093C22.5956 25.6398 23.0608 25.8728 23.4914 25.7296ZM21.8431 23.7227C21.9611 24.0773 21.7692 24.4604 21.4146 24.5783C21.06 24.6962 20.677 24.5044 20.559 24.1498C20.4411 23.7952 20.6329 23.4121 20.9875 23.2942C21.3421 23.1763 21.7252 23.3681 21.8431 23.7227ZM19.5909 23.5668C19.8822 23.4699 20.0397 23.1553 19.9429 22.864C19.846 22.5727 19.5313 22.4151 19.2401 22.512C18.9488 22.6089 18.7912 22.9236 18.8881 23.2148C18.9849 23.5061 19.2996 23.6637 19.5909 23.5668ZM18.2587 22.1383C18.3303 22.3536 18.2138 22.5861 17.9985 22.6577C17.7832 22.7293 17.5506 22.6129 17.479 22.3976C17.4074 22.1823 17.5239 21.9497 17.7392 21.8781C17.9545 21.8065 18.1871 21.923 18.2587 22.1383ZM25.9349 14.6708C26.4122 14.4317 26.6054 13.8509 26.3664 13.3736C26.1273 12.8962 25.5466 12.703 25.0692 12.9421C24.5918 13.1811 24.3986 13.7619 24.6377 14.2393C24.8767 14.7166 25.4575 14.9098 25.9349 14.6708ZM23.4757 14.1609C23.9063 14.3041 24.1393 14.7693 23.9961 15.1998C23.8529 15.6304 23.3877 15.8634 22.9571 15.7202C22.5266 15.577 22.2936 15.1118 22.4368 14.6812C22.58 14.2507 23.0452 14.0177 23.4757 14.1609ZM21.8314 16.1678C21.9493 15.8132 21.7575 15.4301 21.4029 15.3122C21.0483 15.1943 20.6652 15.3861 20.5473 15.7407C20.4294 16.0953 20.6212 16.4784 20.9758 16.5963C21.3304 16.7142 21.7135 16.5224 21.8314 16.1678ZM19.6026 16.3315C19.8939 16.4284 20.0515 16.743 19.9546 17.0343C19.8577 17.3256 19.543 17.4832 19.2518 17.3863C18.9605 17.2894 18.8029 16.9747 18.8998 16.6835C18.9967 16.3922 19.3113 16.2346 19.6026 16.3315ZM18.2548 17.7601C18.3264 17.5448 18.2099 17.3122 17.9946 17.2406C17.7793 17.169 17.5467 17.2855 17.4751 17.5007C17.4035 17.716 17.52 17.9486 17.7353 18.0202C17.9506 18.0918 18.1832 17.9753 18.2548 17.7601ZM36.9614 24.133L40.9245 20.0974L48.5124 31.2618H51.7505L42.8094 18.1159L51.6539 9.07806H48.1258L36.9614 20.5082V9.07806H34.2791V31.2618H36.9614V24.133ZM67.6943 23.8373H55.0076C55.1525 25.553 55.7325 26.8579 56.6991 27.8004C57.6899 28.7428 58.9465 29.202 60.4931 29.202C61.7255 29.202 62.7404 28.9845 63.5621 28.5737C64.3353 28.187 64.9395 27.5346 65.2295 26.713L67.4768 27.8971C66.8485 29.0328 65.9303 29.9753 64.7945 30.6277C63.6829 31.256 62.233 31.5702 60.4931 31.5702C57.9557 31.5702 55.9742 30.7969 54.5242 29.2503C53.0743 27.7037 52.3735 25.553 52.3494 22.8223C52.3494 20.0917 53.0502 17.941 54.4276 16.3944C55.805 14.8478 57.7624 14.0745 60.2997 14.0745C61.7255 14.0262 63.1271 14.3887 64.3595 15.1136C65.4711 15.7903 66.3894 16.7569 66.9452 17.941C67.5493 19.1976 67.8393 20.5508 67.8151 21.9524C67.8151 22.6049 67.791 23.2332 67.6943 23.8373ZM56.6991 17.7718C55.7808 18.6418 55.2492 19.8742 55.0317 21.4691H65.2295C65.0603 19.8984 64.5287 18.6659 63.6829 17.796C62.8371 16.926 61.7013 16.4669 60.2997 16.4669C58.8257 16.4427 57.6174 16.8777 56.6991 17.7718ZM86.6669 20.4763C86.6669 18.4222 86.0386 16.8273 84.8061 15.7399C83.5737 14.6525 82.003 14.0967 80.1422 14.0483C78.9823 14.0242 77.8465 14.29 76.8074 14.7733C75.8167 15.2566 74.995 16.054 74.4876 17.0207L74.3184 14.3866H71.9744V31.2057H74.6567V22.2645C74.6567 20.9354 74.8984 19.8238 75.4058 18.9297C75.8408 18.1081 76.5174 17.4556 77.3391 17.0207C78.1124 16.634 78.9823 16.4407 79.8523 16.4407C81.1088 16.4165 82.1238 16.8032 82.8729 17.6006C83.622 18.3981 83.9845 19.6788 83.9845 21.4187V31.2298H86.6669V20.4763ZM106.022 23.8373H93.3357C93.4807 25.553 94.0606 26.8579 95.0272 27.8004C96.018 28.7428 97.2746 29.202 98.8212 29.202C100.054 29.202 101.069 28.9845 101.89 28.5737C102.663 28.187 103.268 27.5346 103.558 26.713L105.805 27.8971C105.177 29.0328 104.258 29.9753 103.123 30.6277C102.011 31.256 100.561 31.5702 98.8212 31.5702C96.2838 31.5702 94.3023 30.7969 92.8524 29.2503C91.4266 27.7037 90.7017 25.553 90.6775 22.8223C90.6775 20.0917 91.3783 17.941 92.7557 16.3944C94.1331 14.8478 96.0905 14.0745 98.6279 14.0745C100.054 14.0262 101.455 14.3887 102.688 15.1136C103.799 15.7903 104.718 16.7569 105.273 17.941C105.877 19.1976 106.167 20.5508 106.143 21.9524C106.167 22.6049 106.119 23.2332 106.022 23.8373ZM95.0514 17.7718C94.1331 18.6418 93.5773 19.8742 93.384 21.4691H103.582C103.413 19.8984 102.881 18.6659 102.035 17.796C101.189 16.926 100.054 16.4669 98.652 16.4669C97.1538 16.4427 95.9697 16.8777 95.0514 17.7718ZM115.716 31.5897C117.504 31.5897 118.954 31.0822 120.066 30.0673L119.099 27.8441C118.374 28.6415 117.335 29.1007 116.248 29.1007C115.571 29.1248 114.919 28.9074 114.411 28.4724C113.952 28.0616 113.734 27.4333 113.734 26.6358V16.7764H119.945V14.4565H113.734V9.67181L111.052 10.4209V14.4565H107.693V16.7764H111.052V27.095C111.076 28.5932 111.511 29.729 112.381 30.4781C113.227 31.2272 114.339 31.5897 115.716 31.5897ZM122.724 10.6516C122.337 10.265 122.144 9.73333 122.168 9.17752C122.168 8.06592 123.062 7.17181 124.174 7.17181C125.285 7.17181 126.179 8.06592 126.179 9.17752C126.155 10.3133 125.213 11.2316 124.053 11.2074C123.594 11.2074 123.11 11.0141 122.724 10.6516ZM125.527 31.2646H122.844V14.4455H125.527V31.2646ZM144.835 18.5657C144.256 17.2366 143.337 16.0767 142.129 15.2551C140.969 14.4818 139.567 14.0951 137.876 14.0468C135.339 14.0468 133.357 14.8201 131.907 16.3667C130.457 17.9132 129.732 20.064 129.732 22.7946C129.756 25.5253 130.481 27.676 131.907 29.2226C133.357 30.7692 135.339 31.5425 137.876 31.5425C139.64 31.5425 141.114 31.1075 142.322 30.2375C143.555 29.3193 144.497 28.0385 145.005 26.5886L142.516 25.7186C142.322 26.7577 141.766 27.676 140.945 28.3043C140.147 28.9084 139.108 29.1984 137.803 29.1984C136.136 29.1984 134.807 28.6426 133.864 27.5069C132.922 26.3711 132.439 24.8245 132.439 22.8188C132.439 20.8372 132.922 19.2665 133.864 18.1307C134.807 16.995 136.112 16.4392 137.803 16.4392C140.075 16.4392 141.549 17.5508 142.274 19.774L144.835 18.5657Z" fill="#1E2337"/>
</g>
<defs>
<clipPath id="clip0_29_298">
<rect width="148" height="40" fill="white"/>
</clipPath>
</defs>
</svg>
