<svg width="162" height="32" viewBox="0 0 162 32" fill="none" xmlns="http://www.w3.org/2000/svg">
<g clip-path="url(#clip0_29_222)">
<mask id="mask0_29_222" style="mask-type:luminance" maskUnits="userSpaceOnUse" x="0" y="0" width="162" height="32">
<path d="M0 0H162V32H0V0Z" fill="white"/>
</mask>
<g mask="url(#mask0_29_222)">
<path fill-rule="evenodd" clip-rule="evenodd" d="M32 16C32 24.837 24.837 32 16 32C7.163 32 0 24.837 0 16C0 7.163 7.163 0 16 0C24.837 0 32 7.163 32 16ZM10.535 8.93H21.463C23.471 8.93 24.744 11.1 23.735 12.85L16.99 24.538C16.8895 24.712 16.745 24.8565 16.5709 24.957C16.3969 25.0574 16.1995 25.1103 15.9985 25.1103C15.7975 25.1103 15.6001 25.0574 15.4261 24.957C15.252 24.8565 15.1075 24.712 15.007 24.538L8.263 12.85C7.253 11.098 8.526 8.93 10.535 8.93ZM15 21.03V10.927H10.534C10.044 10.927 9.755 11.447 9.989 11.852L13.533 18.19L15 21.03ZM18.463 18.192L22.005 11.852C22.059 11.7574 22.0872 11.6502 22.0865 11.5412C22.0858 11.4322 22.0564 11.3254 22.0012 11.2314C21.946 11.1375 21.867 11.0597 21.7722 11.0061C21.6773 10.9525 21.57 10.9249 21.461 10.926H16.994V21.033L18.463 18.192Z" fill="white"/>
<path d="M105.769 29.486V22.412H107.707V23.218C108.075 22.652 108.811 22.256 109.73 22.256C111.442 22.256 112.461 23.501 112.461 25.34V29.486H110.523V25.666C110.523 24.647 110.084 24.024 109.277 24.024C108.386 24.024 107.707 24.675 107.707 26.034V29.486H105.769ZM104.654 25.949C104.654 28.014 102.984 29.641 100.933 29.641C98.882 29.641 97.212 28.014 97.212 25.949C97.212 23.884 98.882 22.256 100.933 22.256C102.984 22.256 104.654 23.883 104.654 25.949ZM99.164 25.949C99.164 27.039 99.914 27.83 100.933 27.83C101.952 27.83 102.687 27.038 102.687 25.949C102.687 24.859 101.951 24.067 100.933 24.067C99.915 24.067 99.164 24.859 99.164 25.949ZM96.369 20.021C96.369 20.701 95.817 21.252 95.123 21.252C94.458 21.252 93.893 20.7 93.893 20.021C93.893 19.341 94.458 18.79 95.123 18.79C95.817 18.79 96.369 19.342 96.369 20.021ZM94.162 29.486V22.412H96.099V29.487L94.162 29.486ZM93.062 29.415C92.751 29.514 92.368 29.57 91.831 29.57C90.331 29.57 89.128 28.735 89.128 27.01V24.109H87.7V22.41H89.13V20.443H91.068V22.41H93.063V24.108H91.068V26.626C91.068 27.489 91.436 27.829 92.27 27.829C92.582 27.829 92.836 27.786 93.063 27.702L93.062 29.415ZM79.504 25.949C79.504 23.939 80.947 22.256 82.829 22.256C83.805 22.256 84.555 22.751 84.867 23.204V22.411H86.804V29.486H84.867V28.693C84.555 29.146 83.805 29.641 82.829 29.641C80.947 29.641 79.504 27.958 79.504 25.949ZM85.022 25.949C85.022 24.845 84.3 24.024 83.239 24.024C82.178 24.024 81.456 24.845 81.456 25.949C81.456 27.052 82.178 27.873 83.239 27.873C84.3 27.873 85.022 27.053 85.022 25.949ZM71.055 25.948C71.055 23.939 72.498 22.255 74.38 22.255C75.356 22.255 76.106 22.75 76.417 23.203V18.873H78.356V29.485H76.416V28.693C76.106 29.146 75.356 29.641 74.38 29.641C72.498 29.641 71.055 27.957 71.055 25.948ZM76.572 25.948C76.572 24.844 75.851 24.024 74.79 24.024C73.729 24.024 73.007 24.844 73.007 25.948C73.007 27.052 73.729 27.872 74.79 27.872C75.851 27.872 76.572 27.052 76.572 25.948ZM63.32 29.486V22.412H65.258V23.218C65.626 22.652 66.362 22.256 67.281 22.256C68.993 22.256 70.012 23.501 70.012 25.34V29.486H68.074V25.666C68.074 24.647 67.635 24.024 66.829 24.024C65.937 24.024 65.259 24.675 65.259 26.034V29.486H63.32ZM55.2 26.515V22.412H57.14V26.19C57.14 27.25 57.507 27.873 58.342 27.873C59.205 27.873 59.799 27.236 59.799 25.864V22.412H61.737V29.486H59.8V28.68C59.432 29.246 58.767 29.642 57.862 29.642C56.15 29.642 55.202 28.397 55.202 26.515M54.17 25.949C54.17 28.014 52.5 29.641 50.45 29.641C48.398 29.641 46.728 28.014 46.728 25.949C46.728 23.884 48.398 22.256 50.449 22.256C52.5 22.256 54.17 23.883 54.17 25.949ZM48.68 25.949C48.68 27.039 49.43 27.83 50.45 27.83C51.468 27.83 52.204 27.038 52.204 25.949C52.204 24.859 51.468 24.067 50.449 24.067C49.43 24.067 48.68 24.859 48.68 25.949ZM40.685 29.486V19.441H46.797V21.393H42.737V23.473H45.92V25.426H42.737V29.486H40.685ZM154.85 13.612V3H156.788V9.14L159.08 6.537H161.415L158.613 9.721L162.066 13.611H159.674L156.788 10.357V13.612H154.85ZM149.549 13.611V6.537H151.488V7.668C151.728 6.975 152.45 6.452 153.242 6.452C153.44 6.452 153.652 6.466 153.893 6.537V8.503C153.611 8.40314 153.315 8.35076 153.016 8.348C152.096 8.348 151.488 9.069 151.488 10.229V13.611H149.549ZM148.435 10.074C148.435 12.14 146.766 13.767 144.714 13.767C142.662 13.767 140.993 12.14 140.993 10.074C140.993 8.008 142.663 6.381 144.714 6.381C146.765 6.381 148.435 8.008 148.435 10.074ZM142.946 10.074C142.946 11.164 143.695 11.956 144.714 11.956C145.733 11.956 146.469 11.163 146.469 10.074C146.469 8.984 145.733 8.192 144.714 8.192C143.695 8.192 142.946 8.984 142.946 10.074ZM136.578 13.611L135.249 9.579L133.933 13.611H132.009L129.66 6.537H131.726L133.07 11.064L134.499 6.537H135.985L137.427 11.064L138.758 6.537H140.837L138.503 13.611H136.578ZM129.423 13.54C129.111 13.64 128.73 13.697 128.192 13.697C126.692 13.697 125.49 12.862 125.49 11.136V8.236H124.061V6.536H125.49V4.571H127.428V6.537H129.423V8.235H127.428V10.754C127.428 11.617 127.796 11.956 128.63 11.956C128.942 11.956 129.196 11.914 129.423 11.829V13.54ZM123.706 11.305C123.281 12.734 121.881 13.767 120.084 13.767C117.919 13.767 116.377 12.21 116.377 10.06C116.377 7.951 117.948 6.38 120.098 6.38C122.178 6.38 123.89 7.867 123.791 10.527H118.273C118.358 11.361 118.98 12.083 120.183 12.083C120.862 12.083 121.456 11.786 121.682 11.305H123.706ZM120.041 7.951C119.15 7.951 118.527 8.475 118.344 9.253H121.669C121.428 8.305 120.706 7.951 120.041 7.951ZM115.227 13.611H113.458L108.308 7.061V13.611H106.256V3.566H108.025L113.175 10.116V3.566H115.227V13.611ZM94.949 13.61V6.538H96.888V7.344C97.256 6.778 97.991 6.382 98.911 6.382C100.623 6.382 101.641 7.627 101.641 9.466V13.612H99.704V9.79C99.704 8.771 99.264 8.148 98.458 8.148C97.567 8.148 96.888 8.799 96.888 10.158V13.61H94.949ZM93.736 11.305C93.311 12.734 91.91 13.767 90.113 13.767C87.949 13.767 86.407 12.21 86.407 10.06C86.407 7.951 87.977 6.38 90.127 6.38C92.207 6.38 93.92 7.867 93.82 10.527H88.302C88.387 11.361 89.01 12.083 90.212 12.083C90.892 12.083 91.486 11.786 91.712 11.305H93.736ZM90.07 7.95C89.179 7.95 88.556 8.474 88.372 9.252H91.697C91.457 8.304 90.735 7.95 90.07 7.95ZM78.41 16.568V6.536H80.348V7.329C80.673 6.876 81.423 6.381 82.4 6.381C84.281 6.381 85.724 8.065 85.724 10.074C85.724 12.083 84.281 13.767 82.399 13.767C81.423 13.767 80.673 13.271 80.348 12.819V16.568H78.41ZM83.757 10.074C83.757 8.97 83.036 8.149 81.975 8.149C80.914 8.149 80.192 8.97 80.192 10.074C80.192 11.177 80.914 11.998 81.975 11.998C83.036 11.998 83.757 11.178 83.757 10.074ZM77.324 8.588C77.3248 9.27018 77.191 9.94581 76.9303 10.5762C76.6696 11.2066 76.2872 11.7794 75.8048 12.2618C75.3224 12.7441 74.7496 13.1266 74.1192 13.3873C73.4888 13.648 72.8132 13.7818 72.131 13.781C71.4488 13.7818 70.7732 13.648 70.1428 13.3873C69.5124 13.1266 68.9396 12.7441 68.4573 12.2618C67.9749 11.7794 67.5924 11.2066 67.3317 10.5762C67.071 9.94581 66.9372 9.27018 66.938 8.588C66.9374 7.90591 67.0712 7.23038 67.332 6.6001C67.5927 5.96981 67.9752 5.39715 68.4576 4.91488C68.94 4.43261 69.5127 4.05022 70.143 3.78959C70.7734 3.52896 71.4489 3.39521 72.131 3.396C72.813 3.39534 73.4885 3.52919 74.1187 3.78988C74.7489 4.05057 75.3215 4.43298 75.8038 4.91523C76.286 5.39749 76.6684 5.97011 76.9291 6.60033C77.1898 7.23055 77.3247 7.90599 77.324 8.588ZM69.003 8.588C69.003 10.343 70.375 11.8 72.13 11.8C73.885 11.8 75.256 10.343 75.256 8.588C75.256 6.834 73.884 5.376 72.13 5.376C70.375 5.376 69.003 6.834 69.003 8.588ZM63.198 11.305C62.774 12.734 61.373 13.767 59.576 13.767C57.411 13.767 55.869 12.21 55.869 10.06C55.869 7.951 57.439 6.38 59.59 6.38C61.67 6.38 63.382 7.867 63.283 10.527H57.765C57.85 11.361 58.472 12.083 59.675 12.083C60.355 12.083 60.949 11.786 61.175 11.305H63.198ZM59.534 7.95C58.642 7.95 58.02 8.474 57.836 9.252H61.161C60.921 8.304 60.199 7.95 59.534 7.95ZM48.134 13.612V3H50.073V7.344C50.441 6.778 51.176 6.382 52.096 6.382C53.808 6.382 54.826 7.627 54.826 9.466V13.612H52.888V9.792C52.888 8.772 52.45 8.15 51.643 8.15C50.752 8.15 50.073 8.801 50.073 10.16V13.612H48.134ZM42.538 13.611V5.518H39.864V3.566H47.306V5.518H44.603V13.611H42.538Z" fill="white"/>
</g>
</g>
<defs>
<clipPath id="clip0_29_222">
<rect width="162" height="32" fill="white"/>
</clipPath>
</defs>
</svg>
